<svg width="77" height="77" viewBox="0 0 77 77" fill="none" xmlns="http://www.w3.org/2000/svg">
<circle cx="38.5" cy="38.5" r="38.5" fill="white"/>
<path d="M57.9869 37.1454L45.8357 30.0278L40.8022 32.9378L52.9927 40.0161L38.9933 48.0776C38.3641 48.4315 37.6169 48.4315 37.0271 48.0776L22.9883 39.9768L38.0102 31.3255L33.8025 27.9829L13 39.9768L37.0271 53.8582C37.6563 54.2121 38.4034 54.2121 38.9933 53.8582L63.0203 39.9768L57.9869 37.1454Z" fill="url(#paint0_linear_1469_103)"/>
<path d="M57.5151 13L55.7849 15.674L38.089 42.9257L37.9317 42.6897L22.5166 21.6513L37.7744 30.1847L38.4822 29.5948L54.0939 15.9493L57.5151 13Z" fill="url(#paint1_linear_1469_103)"/>
<path d="M22.2412 48.5098L37.0271 57.0431C37.6563 57.397 38.4034 57.397 39.0326 57.0431L45.4818 53.3073V59.0486L39.0326 62.7451C38.4034 63.099 37.6563 63.099 37.0271 62.7451L22.2805 54.2118L22.2412 48.5098Z" fill="url(#paint2_linear_1469_103)"/>
<defs>
<linearGradient id="paint0_linear_1469_103" x1="13" y1="41.0451" x2="63.0387" y2="41.0451" gradientUnits="userSpaceOnUse">
<stop offset="0.2263" stop-color="#526DE2"/>
<stop offset="1" stop-color="#5241E2"/>
</linearGradient>
<linearGradient id="paint1_linear_1469_103" x1="22.4978" y1="27.9669" x2="57.5211" y2="27.9669" gradientUnits="userSpaceOnUse">
<stop stop-color="#A98CDD"/>
<stop offset="1" stop-color="#9753DD"/>
</linearGradient>
<linearGradient id="paint2_linear_1469_103" x1="22.2458" y1="55.765" x2="45.4708" y2="55.765" gradientUnits="userSpaceOnUse">
<stop offset="0.2263" stop-color="#526DE2"/>
<stop offset="1" stop-color="#5241E2"/>
</linearGradient>
</defs>
</svg>
