<svg width="50" height="50" viewBox="0 0 50 50" fill="none" xmlns="http://www.w3.org/2000/svg">
<circle cx="25" cy="25" r="25" fill="white"/>
<path d="M24.9999 26.0625C24.7954 26.0625 24.5909 26.0083 24.4179 25.8819L18.0156 21.6733V28.8983C18.0156 29.4944 18.4403 30.0001 18.9752 30.0001H31.0403C31.5594 30.0001 31.9999 29.5124 31.9999 28.8983V21.6733L25.5819 25.8819C25.3932 26.0083 25.2044 26.0625 24.9999 26.0625Z" fill="#4C4D52"/>
<path d="M31.0404 19H18.9596C18.4404 19 18 19.4877 18 20.1018V20.3186L24.9213 24.8703C24.9685 24.9064 25.0157 24.9064 25.0629 24.8703L31.9843 20.3186V20.1018C31.9843 19.4877 31.5596 19 31.0404 19Z" fill="#4C4D52"/>
</svg>
