<svg width="77" height="77" viewBox="0 0 77 77" fill="none" xmlns="http://www.w3.org/2000/svg">
<circle cx="38.5" cy="38.5" r="38.5" fill="white"/>
<path fill-rule="evenodd" clip-rule="evenodd" d="M22 38.4608V56.9595C22 58.0807 22.9209 59.0016 24.0421 59.0016H30.0482H38.0963V55.8384V52.6752H33.2915H28.4866V52.3148C28.4866 52.1146 28.4866 51.9545 28.4866 51.9545C28.4866 51.9545 28.4866 47.3498 28.4866 38.1404V24.3264H33.2915H38.0963V21.1632V18H30.0482H24.0421C22.9209 18 22 18.9209 22 20.0421V38.4608Z" fill="url(#paint0_linear_1469_107)"/>
<path d="M31.3291 49.9524V47.1095V44.2666H42.7407H51.3094C52.871 44.2666 54.1523 45.5479 54.1523 47.1095C54.1523 48.6711 52.871 49.9524 51.3094 49.9524H42.7407H31.3291Z" fill="url(#paint1_linear_1469_107)"/>
<path d="M31.3291 41.3435V38.5006V35.6577H42.7407H51.3094C52.871 35.6577 54.1523 36.939 54.1523 38.5006C54.1523 40.0622 52.871 41.3435 51.3094 41.3435H42.7407H31.3291Z" fill="#9753DD"/>
<path d="M31.3291 32.7351V29.8922V27.0493H42.7407H51.3094C52.871 27.0493 54.1523 28.3306 54.1523 29.8922C54.1523 31.4538 52.871 32.7351 51.3094 32.7351H42.7407H31.3291Z" fill="url(#paint2_linear_1469_107)"/>
<defs>
<linearGradient id="paint0_linear_1469_107" x1="22.0135" y1="38.4627" x2="38.0724" y2="38.4627" gradientUnits="userSpaceOnUse">
<stop offset="0.2263" stop-color="#526DE2"/>
<stop offset="1" stop-color="#5241E2"/>
</linearGradient>
<linearGradient id="paint1_linear_1469_107" x1="31.3344" y1="47.1" x2="54.1309" y2="47.1" gradientUnits="userSpaceOnUse">
<stop offset="0.2263" stop-color="#526DE2"/>
<stop offset="1" stop-color="#5241E2"/>
</linearGradient>
<linearGradient id="paint2_linear_1469_107" x1="31.3344" y1="29.8761" x2="54.1309" y2="29.8761" gradientUnits="userSpaceOnUse">
<stop offset="0.2263" stop-color="#526DE2"/>
<stop offset="1" stop-color="#5241E2"/>
</linearGradient>
</defs>
</svg>
