<svg width="77" height="77" viewBox="0 0 77 77" fill="none" xmlns="http://www.w3.org/2000/svg">
<circle cx="38.5" cy="38.5" r="38.5" fill="white"/>
<path d="M62.2412 25.0083L52.3925 28.3709L39.4101 23.6126C38.9625 23.454 38.4828 23.454 38.0352 23.6126L24.829 28.4343L14.9483 25.0718C13.7332 24.7546 13.6692 23.1367 14.8524 22.7243L37.8113 15.1427C38.3869 14.9524 39.0264 14.9524 39.634 15.1427L62.3371 22.6609C63.5202 23.0733 63.4563 24.6911 62.2412 25.0083Z" fill="#526DE2"/>
<path d="M58.1166 50.2576C57.8608 49.1156 56.9655 48.2591 55.8143 47.9736C55.5905 47.9101 55.3667 47.8784 55.1109 47.8784C54.7591 47.8784 54.4394 47.9419 54.1196 48.037L53.8318 48.1322L38.707 54.1277V61.2969C39.0268 61.2969 39.3146 61.2334 39.6343 61.1066C42.3203 59.9328 50.5702 56.2848 56.0701 53.8739C56.1021 53.8422 56.1661 53.8422 56.198 53.8105C56.23 53.8105 56.23 53.7787 56.262 53.7787C56.6457 53.6201 56.9975 53.3981 57.3172 53.1126C57.8608 52.5733 58.2126 51.812 58.2126 50.9555C58.2126 50.7017 58.1806 50.4796 58.1166 50.2576Z" fill="#526DE2"/>
<path d="M19.2971 50.2583C19.5529 49.1163 20.4482 48.2598 21.5994 47.9743C21.8232 47.9109 22.0471 47.8792 22.3029 47.8792C22.6546 47.8792 22.9744 47.9426 23.2941 48.0378L23.5819 48.1329L38.7067 54.1284V61.2976C38.3869 61.2976 38.0991 61.2342 37.7794 61.1073C35.0934 59.9336 26.8435 56.2855 21.3436 53.8746C21.3116 53.8429 21.2477 53.8429 21.2157 53.8112C21.1837 53.8112 21.1837 53.7795 21.1517 53.7795C20.768 53.6209 20.4163 53.3988 20.0965 53.1133C19.5529 52.574 19.2012 51.8127 19.2012 50.9562C19.2012 50.7024 19.2331 50.4804 19.2971 50.2583Z" fill="#526DE2"/>
<path d="M16.0361 32.2081C16.0361 32.8109 16.26 33.3501 16.6757 33.7625C16.9315 33.9846 17.2193 34.1432 17.4751 34.2384L17.7629 34.3652L27.9313 38.2988C28.1551 38.394 28.379 38.4257 28.6028 38.4257L26.9081 32.9377C26.7162 32.9377 26.4924 32.906 26.3005 32.8426L19.2657 30.2731L18.946 30.1779C18.5623 30.051 18.1466 30.0193 17.7309 30.0827C16.7716 30.3048 16.0361 31.1613 16.0361 32.2081Z" fill="#759F98"/>
<path d="M16.0361 32.2081C16.0361 32.8109 16.26 33.3501 16.6757 33.7625C16.9315 33.9846 17.2193 34.1432 17.4751 34.2384L17.7629 34.3652L27.9313 38.2988C28.1551 38.394 28.379 38.4257 28.6028 38.4257L26.9081 32.9377C26.7162 32.9377 26.4924 32.906 26.3005 32.8426L19.2657 30.2731L18.946 30.1779C18.5623 30.051 18.1466 30.0193 17.7309 30.0827C16.7716 30.3048 16.0361 31.1613 16.0361 32.2081Z" fill="url(#paint0_linear_1469_102)"/>
<path d="M38.7074 28.6553C38.5476 28.687 38.3877 28.7187 38.2278 28.7504C37.1086 29.1945 34.2627 30.2731 27.6117 32.8109C27.3878 32.906 27.164 32.9378 26.9082 32.9378L28.6029 38.4257C28.8588 38.4257 29.1146 38.3622 29.3704 38.2671L38.1319 34.4287C38.3237 34.3335 38.5156 34.3018 38.7074 34.3018V28.6553Z" fill="#759F98"/>
<path d="M38.7074 28.6553C38.5476 28.687 38.3877 28.7187 38.2278 28.7504C37.1086 29.1945 34.2627 30.2731 27.6117 32.8109C27.3878 32.906 27.164 32.9378 26.9082 32.9378L28.6029 38.4257C28.8588 38.4257 29.1146 38.3622 29.3704 38.2671L38.1319 34.4287C38.3237 34.3335 38.5156 34.3018 38.7074 34.3018V28.6553Z" fill="url(#paint1_linear_1469_102)"/>
<path d="M38.707 28.6553C38.8669 28.687 39.0268 28.7187 39.1867 28.7504C40.3058 29.1945 43.1517 30.2731 49.8028 32.8109C50.0266 32.906 50.2505 32.9378 50.5063 32.9378L48.8115 38.4257C48.5557 38.4257 48.2999 38.3622 48.0441 38.2671L39.2826 34.397C39.0907 34.3018 38.8989 34.2701 38.707 34.2701V28.6553Z" fill="#759F98"/>
<path d="M38.707 28.6553C38.8669 28.687 39.0268 28.7187 39.1867 28.7504C40.3058 29.1945 43.1517 30.2731 49.8028 32.8109C50.0266 32.906 50.2505 32.9378 50.5063 32.9378L48.8115 38.4257C48.5557 38.4257 48.2999 38.3622 48.0441 38.2671L39.2826 34.397C39.0907 34.3018 38.8989 34.2701 38.707 34.2701V28.6553Z" fill="url(#paint2_linear_1469_102)"/>
<path d="M61.3784 32.2088C61.3784 32.8116 61.1546 33.3508 60.7389 33.7632C60.4831 33.9853 60.1953 34.1439 59.9395 34.2391L59.6517 34.366L49.5153 38.2678C49.2914 38.3629 49.0676 38.3947 48.8438 38.3947L50.5385 32.9067C50.7623 32.9067 50.9542 32.875 51.146 32.8116L58.1808 30.2421L58.5006 30.1469C58.8843 30.02 59.3 29.9883 59.7157 30.0517C60.675 30.3055 61.3784 31.162 61.3784 32.2088Z" fill="#759F98"/>
<path d="M61.3784 32.2088C61.3784 32.8116 61.1546 33.3508 60.7389 33.7632C60.4831 33.9853 60.1953 34.1439 59.9395 34.2391L59.6517 34.366L49.5153 38.2678C49.2914 38.3629 49.0676 38.3947 48.8438 38.3947L50.5385 32.9067C50.7623 32.9067 50.9542 32.875 51.146 32.8116L58.1808 30.2421L58.5006 30.1469C58.8843 30.02 59.3 29.9883 59.7157 30.0517C60.675 30.3055 61.3784 31.162 61.3784 32.2088Z" fill="url(#paint3_linear_1469_102)"/>
<path d="M37.6806 45.4989C38.0004 45.3402 38.3521 45.2451 38.7039 45.2451V39.4082C38.4161 39.4082 38.1283 39.4716 37.8725 39.5668L30.7738 42.3266C30.518 42.4218 30.2302 42.4853 29.9424 42.4853L31.797 48.3539L31.8929 48.3856L37.6806 45.4989Z" fill="url(#paint4_linear_1469_102)"/>
<path d="M39.7273 45.4989C39.4076 45.3402 39.0558 45.2451 38.7041 45.2451V39.4082C38.9919 39.4082 39.2797 39.4716 39.5355 39.5668L46.6342 42.3266C46.89 42.4218 47.1778 42.4853 47.4656 42.4853L45.611 48.3539L45.515 48.3856L39.7273 45.4989Z" fill="url(#paint5_linear_1469_102)"/>
<path d="M19.6149 39.0285C19.6788 39.0285 19.7108 39.0285 19.7748 38.9968C19.8707 38.9651 19.9666 38.9651 20.0626 38.9651C20.0945 38.9651 20.1265 38.9651 20.1585 38.9651C20.1905 38.9651 20.2224 38.9651 20.2544 38.9651C20.4143 38.9651 20.5742 38.9968 20.7021 39.0285C20.7341 39.0285 20.766 39.0603 20.766 39.0603C20.862 39.092 20.9259 39.092 21.0218 39.1554L29.2078 42.3594C29.4636 42.4545 29.6874 42.4862 29.9432 42.4862L31.7978 48.3548L19.3591 43.5014C19.2951 43.4696 19.2632 43.4379 19.2312 43.4379C18.9434 43.311 18.7196 43.1524 18.4957 42.9621C18.08 42.5497 17.8242 41.9787 17.8242 41.3125C17.8242 40.2023 18.5597 39.2823 19.6149 39.0285Z" fill="url(#paint6_linear_1469_102)"/>
<path d="M57.8265 39.0278C57.7626 39.0278 57.7306 39.0278 57.6666 38.9961C57.5707 38.9644 57.4748 38.9644 57.3788 38.9644C57.3469 38.9644 57.3149 38.9644 57.2829 38.9644C57.2509 38.9644 57.219 38.9644 57.187 38.9644C57.0271 38.9644 56.8672 38.9961 56.7393 39.0278C56.7073 39.0278 56.6754 39.0595 56.6754 39.0595C56.5794 39.0912 56.5155 39.0912 56.4196 39.1547L48.2336 42.3586C47.9778 42.4538 47.754 42.4855 47.4982 42.4855L45.6436 48.3541L58.0823 43.5006C58.1463 43.4689 58.1782 43.4372 58.2102 43.4372C58.498 43.3103 58.7218 43.1517 58.9457 42.9613C59.3614 42.549 59.6172 41.978 59.6172 41.3118C59.6172 40.2015 58.8498 39.2816 57.8265 39.0278Z" fill="url(#paint7_linear_1469_102)"/>
<defs>
<linearGradient id="paint0_linear_1469_102" x1="22.3195" y1="30.051" x2="22.3195" y2="38.4257" gradientUnits="userSpaceOnUse">
<stop stop-color="#91C95A"/>
<stop offset="1" stop-color="#7098A2"/>
</linearGradient>
<linearGradient id="paint1_linear_1469_102" x1="32.8078" y1="28.6553" x2="32.8078" y2="38.4257" gradientUnits="userSpaceOnUse">
<stop stop-color="#91C95A"/>
<stop offset="1" stop-color="#7098A2"/>
</linearGradient>
<linearGradient id="paint2_linear_1469_102" x1="44.6067" y1="28.6553" x2="44.6067" y2="38.4257" gradientUnits="userSpaceOnUse">
<stop stop-color="#91C95A"/>
<stop offset="1" stop-color="#7098A2"/>
</linearGradient>
<linearGradient id="paint3_linear_1469_102" x1="55.1111" y1="30.02" x2="55.1111" y2="38.3947" gradientUnits="userSpaceOnUse">
<stop stop-color="#91C95A"/>
<stop offset="1" stop-color="#7098A2"/>
</linearGradient>
<linearGradient id="paint4_linear_1469_102" x1="34.3231" y1="39.4082" x2="34.3231" y2="48.3856" gradientUnits="userSpaceOnUse">
<stop stop-color="#9753DD"/>
<stop offset="1" stop-color="#C2A7F3"/>
</linearGradient>
<linearGradient id="paint5_linear_1469_102" x1="43.0849" y1="39.4082" x2="43.0849" y2="48.3856" gradientUnits="userSpaceOnUse">
<stop stop-color="#9753DD"/>
<stop offset="1" stop-color="#C2A7F3"/>
</linearGradient>
<linearGradient id="paint6_linear_1469_102" x1="24.811" y1="38.9651" x2="24.811" y2="48.3548" gradientUnits="userSpaceOnUse">
<stop stop-color="#9753DD"/>
<stop offset="1" stop-color="#C2A7F3"/>
</linearGradient>
<linearGradient id="paint7_linear_1469_102" x1="52.6304" y1="38.9644" x2="52.6304" y2="48.3541" gradientUnits="userSpaceOnUse">
<stop stop-color="#9753DD"/>
<stop offset="1" stop-color="#C2A7F3"/>
</linearGradient>
</defs>
</svg>
