<svg width="29" height="27" viewBox="0 0 29 27" fill="none" xmlns="http://www.w3.org/2000/svg">
<mask id="mask0_1330_2622" style="mask-type:alpha" maskUnits="userSpaceOnUse" x="0" y="0" width="29" height="27">
<path d="M28.0812 5.66012L22.5114 7.56178L15.1693 4.87076C14.9161 4.78105 14.6449 4.78105 14.3917 4.87076L6.92305 7.59766L1.33513 5.696C0.647941 5.5166 0.611773 4.60165 1.28088 4.36843L14.2651 0.0807308C14.5906 -0.0269103 14.9523 -0.0269103 15.2959 0.0807308L28.1354 4.33255C28.8045 4.56577 28.7684 5.48072 28.0812 5.66012Z" fill="#526DE2"/>
<path d="M25.7484 19.9398C25.6037 19.2939 25.0974 18.8095 24.4464 18.6481C24.3198 18.6122 24.1932 18.5942 24.0485 18.5942C23.8496 18.5942 23.6688 18.6301 23.4879 18.6839L23.3252 18.7378L14.7715 22.1285V26.1829C14.9523 26.1829 15.1151 26.147 15.2959 26.0753C16.815 25.4115 21.4806 23.3484 24.591 21.9849C24.6091 21.967 24.6453 21.967 24.6634 21.949C24.6815 21.949 24.6815 21.9311 24.6995 21.9311C24.9165 21.8414 25.1155 21.7158 25.2963 21.5544C25.6037 21.2494 25.8027 20.8188 25.8027 20.3344C25.8027 20.1909 25.7846 20.0653 25.7484 19.9398Z" fill="#526DE2"/>
<path d="M3.79546 19.9407C3.94013 19.2949 4.44648 18.8105 5.0975 18.649C5.22409 18.6132 5.35068 18.5952 5.49535 18.5952C5.69427 18.5952 5.87511 18.6311 6.05595 18.6849L6.2187 18.7387L14.7724 22.1294V26.1839C14.5915 26.1839 14.4288 26.148 14.2479 26.0763C12.7289 25.4125 8.06326 23.3494 4.95283 21.9859C4.93475 21.968 4.89858 21.968 4.8805 21.95C4.86241 21.95 4.86241 21.9321 4.84433 21.9321C4.62732 21.8424 4.4284 21.7168 4.24756 21.5553C3.94013 21.2504 3.74121 20.8198 3.74121 20.3354C3.74121 20.1919 3.75929 20.0663 3.79546 19.9407Z" fill="#526DE2"/>
<path d="M1.9502 9.73214C1.9502 10.073 2.07678 10.378 2.31187 10.6112C2.45654 10.7368 2.6193 10.8265 2.76397 10.8803L2.92673 10.9521L8.6774 13.1767C8.80399 13.2305 8.93057 13.2484 9.05716 13.2484L8.09872 10.1448C7.99021 10.1448 7.86363 10.1268 7.75512 10.0909L3.77667 8.63779L3.59583 8.58397C3.37882 8.51221 3.14373 8.49427 2.90864 8.53015C2.36612 8.65573 1.9502 9.14011 1.9502 9.73214Z" fill="#759F98"/>
<path d="M1.9502 9.73214C1.9502 10.073 2.07678 10.378 2.31187 10.6112C2.45654 10.7368 2.6193 10.8265 2.76397 10.8803L2.92673 10.9521L8.6774 13.1767C8.80399 13.2305 8.93057 13.2484 9.05716 13.2484L8.09872 10.1448C7.99021 10.1448 7.86363 10.1268 7.75512 10.0909L3.77667 8.63779L3.59583 8.58397C3.37882 8.51221 3.14373 8.49427 2.90864 8.53015C2.36612 8.65573 1.9502 9.14011 1.9502 9.73214Z" fill="url(#paint0_linear_1330_2622)"/>
<path d="M14.7716 7.72266C14.6812 7.7406 14.5907 7.75854 14.5003 7.77648C13.8674 8.02764 12.2579 8.63761 8.49648 10.0728C8.36989 10.1266 8.2433 10.1446 8.09863 10.1446L9.05708 13.2482C9.20175 13.2482 9.34642 13.2123 9.49109 13.1585L14.4461 10.9878C14.5546 10.9339 14.6631 10.916 14.7716 10.916V7.72266Z" fill="#759F98"/>
<path d="M14.7716 7.72266C14.6812 7.7406 14.5907 7.75854 14.5003 7.77648C13.8674 8.02764 12.2579 8.63761 8.49648 10.0728C8.36989 10.1266 8.2433 10.1446 8.09863 10.1446L9.05708 13.2482C9.20175 13.2482 9.34642 13.2123 9.49109 13.1585L14.4461 10.9878C14.5546 10.9339 14.6631 10.916 14.7716 10.916V7.72266Z" fill="url(#paint1_linear_1330_2622)"/>
<path d="M14.7715 7.72266C14.8619 7.7406 14.9523 7.75854 15.0427 7.77648C15.6757 8.02764 17.2851 8.63761 21.0466 10.0728C21.1732 10.1266 21.2998 10.1446 21.4444 10.1446L20.486 13.2482C20.3413 13.2482 20.1966 13.2123 20.052 13.1585L15.097 10.9698C14.9885 10.916 14.88 10.8981 14.7715 10.8981V7.72266Z" fill="#759F98"/>
<path d="M14.7715 7.72266C14.8619 7.7406 14.9523 7.75854 15.0427 7.77648C15.6757 8.02764 17.2851 8.63761 21.0466 10.0728C21.1732 10.1266 21.2998 10.1446 21.4444 10.1446L20.486 13.2482C20.3413 13.2482 20.1966 13.2123 20.052 13.1585L15.097 10.9698C14.9885 10.916 14.88 10.8981 14.7715 10.8981V7.72266Z" fill="url(#paint2_linear_1330_2622)"/>
<path d="M27.5928 9.73201C27.5928 10.0729 27.4662 10.3779 27.2311 10.6111C27.0864 10.7367 26.9237 10.8264 26.779 10.8802L26.6163 10.9519L20.8837 13.1586C20.7571 13.2124 20.6305 13.2303 20.5039 13.2303L21.4624 10.1267C21.5889 10.1267 21.6974 10.1088 21.8059 10.0729L25.7844 8.61972L25.9652 8.5659C26.1822 8.49414 26.4173 8.4762 26.6524 8.51208C27.1949 8.6556 27.5928 9.13999 27.5928 9.73201Z" fill="#759F98"/>
<path d="M27.5928 9.73201C27.5928 10.0729 27.4662 10.3779 27.2311 10.6111C27.0864 10.7367 26.9237 10.8264 26.779 10.8802L26.6163 10.9519L20.8837 13.1586C20.7571 13.2124 20.6305 13.2303 20.5039 13.2303L21.4624 10.1267C21.5889 10.1267 21.6974 10.1088 21.8059 10.0729L25.7844 8.61972L25.9652 8.5659C26.1822 8.49414 26.4173 8.4762 26.6524 8.51208C27.1949 8.6556 27.5928 9.13999 27.5928 9.73201Z" fill="url(#paint3_linear_1330_2622)"/>
<path d="M14.1927 17.2482C14.3735 17.1585 14.5725 17.1047 14.7714 17.1047V13.8037C14.6086 13.8037 14.4459 13.8396 14.3012 13.8934L10.2866 15.4542C10.1419 15.508 9.97916 15.5439 9.81641 15.5439L10.8653 18.8628L10.9195 18.8808L14.1927 17.2482Z" fill="url(#paint4_linear_1330_2622)"/>
<path d="M15.3502 17.2482C15.1693 17.1585 14.9704 17.1047 14.7715 17.1047V13.8037C14.9342 13.8037 15.097 13.8396 15.2417 13.8934L19.2563 15.4542C19.401 15.508 19.5637 15.5439 19.7265 15.5439L18.6776 18.8628L18.6234 18.8808L15.3502 17.2482Z" fill="url(#paint5_linear_1330_2622)"/>
<path d="M3.97461 13.5891C4.01078 13.5891 4.02886 13.5891 4.06503 13.5712C4.11928 13.5532 4.17353 13.5532 4.22779 13.5532C4.24587 13.5532 4.26395 13.5532 4.28204 13.5532C4.30012 13.5532 4.3182 13.5532 4.33629 13.5532C4.42671 13.5532 4.51713 13.5712 4.58946 13.5891C4.60755 13.5891 4.62563 13.607 4.62563 13.607C4.67988 13.625 4.71605 13.625 4.7703 13.6609L9.39977 15.4728C9.54444 15.5266 9.67103 15.5446 9.8157 15.5446L10.8646 18.8635L3.82994 16.1187C3.79377 16.1007 3.77569 16.0828 3.7576 16.0828C3.59485 16.011 3.46826 15.9213 3.34168 15.8137C3.10659 15.5805 2.96191 15.2575 2.96191 14.8808C2.96191 14.2529 3.37784 13.7326 3.97461 13.5891Z" fill="url(#paint6_linear_1330_2622)"/>
<path d="M25.5853 13.5886C25.5491 13.5886 25.531 13.5886 25.4949 13.5707C25.4406 13.5527 25.3863 13.5527 25.3321 13.5527C25.314 13.5527 25.2959 13.5527 25.2778 13.5527C25.2598 13.5527 25.2417 13.5527 25.2236 13.5527C25.1332 13.5527 25.0428 13.5707 24.9704 13.5886C24.9523 13.5886 24.9342 13.6066 24.9342 13.6066C24.88 13.6245 24.8438 13.6245 24.7896 13.6604L20.1601 15.4723C20.0154 15.5262 19.8888 15.5441 19.7442 15.5441L18.6953 18.863L25.7299 16.1182C25.7661 16.1002 25.7842 16.0823 25.8023 16.0823C25.965 16.0105 26.0916 15.9208 26.2182 15.8132C26.4533 15.58 26.598 15.257 26.598 14.8803C26.598 14.2524 26.164 13.7321 25.5853 13.5886Z" fill="url(#paint7_linear_1330_2622)"/>
</mask>
<g mask="url(#mask0_1330_2622)">
<path d="M28.0812 5.66012L22.5114 7.56178L15.1693 4.87076C14.9161 4.78105 14.6449 4.78105 14.3917 4.87076L6.92305 7.59766L1.33513 5.696C0.647941 5.5166 0.611773 4.60165 1.28088 4.36843L14.2651 0.0807308C14.5906 -0.0269103 14.9523 -0.0269103 15.2959 0.0807308L28.1354 4.33255C28.8045 4.56577 28.7684 5.48072 28.0812 5.66012Z" fill="#526DE2"/>
<path d="M25.7484 19.9398C25.6037 19.2939 25.0974 18.8095 24.4464 18.6481C24.3198 18.6122 24.1932 18.5942 24.0485 18.5942C23.8496 18.5942 23.6688 18.6301 23.4879 18.6839L23.3252 18.7378L14.7715 22.1285V26.1829C14.9523 26.1829 15.1151 26.147 15.2959 26.0753C16.815 25.4115 21.4806 23.3484 24.591 21.9849C24.6091 21.967 24.6453 21.967 24.6634 21.949C24.6815 21.949 24.6815 21.9311 24.6995 21.9311C24.9165 21.8414 25.1155 21.7158 25.2963 21.5544C25.6037 21.2494 25.8027 20.8188 25.8027 20.3344C25.8027 20.1909 25.7846 20.0653 25.7484 19.9398Z" fill="#526DE2"/>
<path d="M3.79546 19.9407C3.94013 19.2949 4.44648 18.8105 5.0975 18.649C5.22409 18.6132 5.35068 18.5952 5.49535 18.5952C5.69427 18.5952 5.87511 18.6311 6.05595 18.6849L6.2187 18.7387L14.7724 22.1294V26.1839C14.5915 26.1839 14.4288 26.148 14.2479 26.0763C12.7289 25.4125 8.06326 23.3494 4.95283 21.9859C4.93475 21.968 4.89858 21.968 4.8805 21.95C4.86241 21.95 4.86241 21.9321 4.84433 21.9321C4.62732 21.8424 4.4284 21.7168 4.24756 21.5553C3.94013 21.2504 3.74121 20.8198 3.74121 20.3354C3.74121 20.1919 3.75929 20.0663 3.79546 19.9407Z" fill="#526DE2"/>
<path d="M1.9502 9.73214C1.9502 10.073 2.07678 10.378 2.31187 10.6112C2.45654 10.7368 2.6193 10.8265 2.76397 10.8803L2.92673 10.9521L8.6774 13.1767C8.80399 13.2305 8.93057 13.2484 9.05716 13.2484L8.09872 10.1448C7.99021 10.1448 7.86363 10.1268 7.75512 10.0909L3.77667 8.63779L3.59583 8.58397C3.37882 8.51221 3.14373 8.49427 2.90864 8.53015C2.36612 8.65573 1.9502 9.14011 1.9502 9.73214Z" fill="#759F98"/>
<path d="M1.9502 9.73214C1.9502 10.073 2.07678 10.378 2.31187 10.6112C2.45654 10.7368 2.6193 10.8265 2.76397 10.8803L2.92673 10.9521L8.6774 13.1767C8.80399 13.2305 8.93057 13.2484 9.05716 13.2484L8.09872 10.1448C7.99021 10.1448 7.86363 10.1268 7.75512 10.0909L3.77667 8.63779L3.59583 8.58397C3.37882 8.51221 3.14373 8.49427 2.90864 8.53015C2.36612 8.65573 1.9502 9.14011 1.9502 9.73214Z" fill="url(#paint8_linear_1330_2622)"/>
<path d="M14.7716 7.72266C14.6812 7.7406 14.5907 7.75854 14.5003 7.77648C13.8674 8.02764 12.2579 8.63761 8.49648 10.0728C8.36989 10.1266 8.2433 10.1446 8.09863 10.1446L9.05708 13.2482C9.20175 13.2482 9.34642 13.2123 9.49109 13.1585L14.4461 10.9878C14.5546 10.9339 14.6631 10.916 14.7716 10.916V7.72266Z" fill="#759F98"/>
<path d="M14.7716 7.72266C14.6812 7.7406 14.5907 7.75854 14.5003 7.77648C13.8674 8.02764 12.2579 8.63761 8.49648 10.0728C8.36989 10.1266 8.2433 10.1446 8.09863 10.1446L9.05708 13.2482C9.20175 13.2482 9.34642 13.2123 9.49109 13.1585L14.4461 10.9878C14.5546 10.9339 14.6631 10.916 14.7716 10.916V7.72266Z" fill="url(#paint9_linear_1330_2622)"/>
<path d="M14.7715 7.72266C14.8619 7.7406 14.9523 7.75854 15.0427 7.77648C15.6757 8.02764 17.2851 8.63761 21.0466 10.0728C21.1732 10.1266 21.2998 10.1446 21.4444 10.1446L20.486 13.2482C20.3413 13.2482 20.1966 13.2123 20.052 13.1585L15.097 10.9698C14.9885 10.916 14.88 10.8981 14.7715 10.8981V7.72266Z" fill="#759F98"/>
<path d="M14.7715 7.72266C14.8619 7.7406 14.9523 7.75854 15.0427 7.77648C15.6757 8.02764 17.2851 8.63761 21.0466 10.0728C21.1732 10.1266 21.2998 10.1446 21.4444 10.1446L20.486 13.2482C20.3413 13.2482 20.1966 13.2123 20.052 13.1585L15.097 10.9698C14.9885 10.916 14.88 10.8981 14.7715 10.8981V7.72266Z" fill="url(#paint10_linear_1330_2622)"/>
<path d="M27.5928 9.73201C27.5928 10.0729 27.4662 10.3779 27.2311 10.6111C27.0864 10.7367 26.9237 10.8264 26.779 10.8802L26.6163 10.9519L20.8837 13.1586C20.7571 13.2124 20.6305 13.2303 20.5039 13.2303L21.4624 10.1267C21.5889 10.1267 21.6974 10.1088 21.8059 10.0729L25.7844 8.61972L25.9652 8.5659C26.1822 8.49414 26.4173 8.4762 26.6524 8.51208C27.1949 8.6556 27.5928 9.13999 27.5928 9.73201Z" fill="#759F98"/>
<path d="M27.5928 9.73201C27.5928 10.0729 27.4662 10.3779 27.2311 10.6111C27.0864 10.7367 26.9237 10.8264 26.779 10.8802L26.6163 10.9519L20.8837 13.1586C20.7571 13.2124 20.6305 13.2303 20.5039 13.2303L21.4624 10.1267C21.5889 10.1267 21.6974 10.1088 21.8059 10.0729L25.7844 8.61972L25.9652 8.5659C26.1822 8.49414 26.4173 8.4762 26.6524 8.51208C27.1949 8.6556 27.5928 9.13999 27.5928 9.73201Z" fill="url(#paint11_linear_1330_2622)"/>
<path d="M14.1927 17.2482C14.3735 17.1585 14.5725 17.1047 14.7714 17.1047V13.8037C14.6086 13.8037 14.4459 13.8396 14.3012 13.8934L10.2866 15.4542C10.1419 15.508 9.97916 15.5439 9.81641 15.5439L10.8653 18.8628L10.9195 18.8808L14.1927 17.2482Z" fill="url(#paint12_linear_1330_2622)"/>
<path d="M15.3502 17.2482C15.1693 17.1585 14.9704 17.1047 14.7715 17.1047V13.8037C14.9342 13.8037 15.097 13.8396 15.2417 13.8934L19.2563 15.4542C19.401 15.508 19.5637 15.5439 19.7265 15.5439L18.6776 18.8628L18.6234 18.8808L15.3502 17.2482Z" fill="url(#paint13_linear_1330_2622)"/>
<path d="M3.97461 13.5891C4.01078 13.5891 4.02886 13.5891 4.06503 13.5712C4.11928 13.5532 4.17353 13.5532 4.22779 13.5532C4.24587 13.5532 4.26395 13.5532 4.28204 13.5532C4.30012 13.5532 4.3182 13.5532 4.33629 13.5532C4.42671 13.5532 4.51713 13.5712 4.58946 13.5891C4.60755 13.5891 4.62563 13.607 4.62563 13.607C4.67988 13.625 4.71605 13.625 4.7703 13.6609L9.39977 15.4728C9.54444 15.5266 9.67103 15.5446 9.8157 15.5446L10.8646 18.8635L3.82994 16.1187C3.79377 16.1007 3.77569 16.0828 3.7576 16.0828C3.59485 16.011 3.46826 15.9213 3.34168 15.8137C3.10659 15.5805 2.96191 15.2575 2.96191 14.8808C2.96191 14.2529 3.37784 13.7326 3.97461 13.5891Z" fill="url(#paint14_linear_1330_2622)"/>
<path d="M25.5853 13.5886C25.5491 13.5886 25.531 13.5886 25.4949 13.5707C25.4406 13.5527 25.3863 13.5527 25.3321 13.5527C25.314 13.5527 25.2959 13.5527 25.2778 13.5527C25.2598 13.5527 25.2417 13.5527 25.2236 13.5527C25.1332 13.5527 25.0428 13.5707 24.9704 13.5886C24.9523 13.5886 24.9342 13.6066 24.9342 13.6066C24.88 13.6245 24.8438 13.6245 24.7896 13.6604L20.1601 15.4723C20.0154 15.5262 19.8888 15.5441 19.7442 15.5441L18.6953 18.863L25.7299 16.1182C25.7661 16.1002 25.7842 16.0823 25.8023 16.0823C25.965 16.0105 26.0916 15.9208 26.2182 15.8132C26.4533 15.58 26.598 15.257 26.598 14.8803C26.598 14.2524 26.164 13.7321 25.5853 13.5886Z" fill="url(#paint15_linear_1330_2622)"/>
<g style="mix-blend-mode:color">
<rect y="-1.64648" width="29" height="30" fill="#C4C4C4"/>
</g>
</g>
<defs>
<linearGradient id="paint0_linear_1330_2622" x1="5.50368" y1="8.51221" x2="5.50368" y2="13.2484" gradientUnits="userSpaceOnUse">
<stop stop-color="#91C95A"/>
<stop offset="1" stop-color="#7098A2"/>
</linearGradient>
<linearGradient id="paint1_linear_1330_2622" x1="11.4351" y1="7.72266" x2="11.4351" y2="13.2482" gradientUnits="userSpaceOnUse">
<stop stop-color="#91C95A"/>
<stop offset="1" stop-color="#7098A2"/>
</linearGradient>
<linearGradient id="paint2_linear_1330_2622" x1="18.108" y1="7.72266" x2="18.108" y2="13.2482" gradientUnits="userSpaceOnUse">
<stop stop-color="#91C95A"/>
<stop offset="1" stop-color="#7098A2"/>
</linearGradient>
<linearGradient id="paint3_linear_1330_2622" x1="24.0483" y1="8.49414" x2="24.0483" y2="13.2303" gradientUnits="userSpaceOnUse">
<stop stop-color="#91C95A"/>
<stop offset="1" stop-color="#7098A2"/>
</linearGradient>
<linearGradient id="paint4_linear_1330_2622" x1="12.2939" y1="13.8037" x2="12.2939" y2="18.8808" gradientUnits="userSpaceOnUse">
<stop stop-color="#9753DD"/>
<stop offset="1" stop-color="#C2A7F3"/>
</linearGradient>
<linearGradient id="paint5_linear_1330_2622" x1="17.249" y1="13.8037" x2="17.249" y2="18.8808" gradientUnits="userSpaceOnUse">
<stop stop-color="#9753DD"/>
<stop offset="1" stop-color="#C2A7F3"/>
</linearGradient>
<linearGradient id="paint6_linear_1330_2622" x1="6.91324" y1="13.5532" x2="6.91324" y2="18.8635" gradientUnits="userSpaceOnUse">
<stop stop-color="#9753DD"/>
<stop offset="1" stop-color="#C2A7F3"/>
</linearGradient>
<linearGradient id="paint7_linear_1330_2622" x1="22.6466" y1="13.5527" x2="22.6466" y2="18.863" gradientUnits="userSpaceOnUse">
<stop stop-color="#9753DD"/>
<stop offset="1" stop-color="#C2A7F3"/>
</linearGradient>
<linearGradient id="paint8_linear_1330_2622" x1="5.50368" y1="8.51221" x2="5.50368" y2="13.2484" gradientUnits="userSpaceOnUse">
<stop stop-color="#91C95A"/>
<stop offset="1" stop-color="#7098A2"/>
</linearGradient>
<linearGradient id="paint9_linear_1330_2622" x1="11.4351" y1="7.72266" x2="11.4351" y2="13.2482" gradientUnits="userSpaceOnUse">
<stop stop-color="#91C95A"/>
<stop offset="1" stop-color="#7098A2"/>
</linearGradient>
<linearGradient id="paint10_linear_1330_2622" x1="18.108" y1="7.72266" x2="18.108" y2="13.2482" gradientUnits="userSpaceOnUse">
<stop stop-color="#91C95A"/>
<stop offset="1" stop-color="#7098A2"/>
</linearGradient>
<linearGradient id="paint11_linear_1330_2622" x1="24.0483" y1="8.49414" x2="24.0483" y2="13.2303" gradientUnits="userSpaceOnUse">
<stop stop-color="#91C95A"/>
<stop offset="1" stop-color="#7098A2"/>
</linearGradient>
<linearGradient id="paint12_linear_1330_2622" x1="12.2939" y1="13.8037" x2="12.2939" y2="18.8808" gradientUnits="userSpaceOnUse">
<stop stop-color="#9753DD"/>
<stop offset="1" stop-color="#C2A7F3"/>
</linearGradient>
<linearGradient id="paint13_linear_1330_2622" x1="17.249" y1="13.8037" x2="17.249" y2="18.8808" gradientUnits="userSpaceOnUse">
<stop stop-color="#9753DD"/>
<stop offset="1" stop-color="#C2A7F3"/>
</linearGradient>
<linearGradient id="paint14_linear_1330_2622" x1="6.91324" y1="13.5532" x2="6.91324" y2="18.8635" gradientUnits="userSpaceOnUse">
<stop stop-color="#9753DD"/>
<stop offset="1" stop-color="#C2A7F3"/>
</linearGradient>
<linearGradient id="paint15_linear_1330_2622" x1="22.6466" y1="13.5527" x2="22.6466" y2="18.863" gradientUnits="userSpaceOnUse">
<stop stop-color="#9753DD"/>
<stop offset="1" stop-color="#C2A7F3"/>
</linearGradient>
</defs>
</svg>
