<svg width="77" height="77" viewBox="0 0 77 77" fill="none" xmlns="http://www.w3.org/2000/svg">
<circle cx="38.5" cy="38.5" r="38.5" fill="white"/>
<path d="M52.585 20H46.7709C45.1221 20 43.6035 20.9546 42.8659 22.4732L41.4775 25.25C40.2626 27.7666 37.7026 29.3286 34.9258 29.3286H33.1034V24.2521C33.1034 21.9091 31.1943 20 28.8513 20H24.2521C21.9091 20 20 21.9091 20 24.2521V52.8453C20 54.7111 21.5186 56.2297 23.3843 56.2297H29.7191C31.5848 56.2297 33.1034 54.7111 33.1034 52.8453V47.5519H35.8803C38.3101 47.5519 40.5663 48.897 41.6944 51.0664L43.3866 54.2772C44.0374 55.4921 45.2957 56.2297 46.6841 56.2297H53.583C56.4032 56.2297 58.2256 53.2358 56.9239 50.7193L50.2854 37.963L56.4466 26.4649C58.0086 23.5145 55.926 20 52.585 20Z" fill="url(#paint0_linear_1469_106)"/>
<path d="M27.2891 34.1013C27.2891 35.2728 28.4606 36.1406 29.6754 35.7067C30.1093 35.5332 30.4565 35.1861 30.63 34.7522C30.9337 33.9278 30.63 33.1034 29.9792 32.6695V24.9897C30.63 24.5558 30.9337 23.7314 30.63 22.907C30.4565 22.4731 30.1093 22.126 29.6754 21.9525C28.4606 21.5186 27.2891 22.3864 27.2891 23.5579C27.2891 24.1219 27.5928 24.686 28.0701 24.9897V32.6695C27.5494 32.9732 27.2891 33.5373 27.2891 34.1013Z" fill="white"/>
<path d="M29.936 50.8495V43.3433L34.8823 33.5374H42.996L47.0312 25.3369C47.8555 25.12 48.463 24.2956 48.2894 23.3844C48.1593 22.7336 47.6386 22.2129 46.9878 22.0827C45.9464 21.8658 44.9919 22.6902 44.9919 23.7315C44.9919 24.0786 45.0787 24.4257 45.2956 24.6861L41.8679 31.6717H33.7542L28.0703 42.9528V50.8929C27.5062 51.24 27.2025 51.9343 27.3326 52.6285C27.4628 53.2793 27.9835 53.8 28.6343 53.9301C29.719 54.1471 30.6302 53.3227 30.6302 52.2814C30.6302 51.6739 30.3265 51.1533 29.936 50.8495Z" fill="white"/>
<path d="M45.9469 38.2233L52.7156 25.3802C53.1495 25.3368 53.54 25.1199 53.8003 24.7727C54.104 24.3822 54.2342 23.8616 54.1474 23.3843C54.0172 22.7769 53.4966 22.2562 52.8891 22.126C52.3685 22.0392 51.8912 22.126 51.5007 22.4731C51.1102 22.7769 50.8932 23.2541 50.8932 23.7748C50.8932 24.0785 50.98 24.3389 51.1102 24.5992L44.8622 36.3576H36.6183L34.2753 40.9134C33.4075 40.9568 32.6699 41.6944 32.6699 42.6056C32.6699 43.5167 33.4075 44.2977 34.3621 44.2977C35.2733 44.2977 36.0543 43.5601 36.0543 42.6056C36.0543 42.3452 35.9675 42.0849 35.8807 41.8246L37.7464 38.2667H45.9469V38.2233Z" fill="white"/>
<path d="M47.1612 50.5893L43.4732 43.6904C43.6034 43.4301 43.6901 43.1698 43.6901 42.8661C43.6901 41.9549 42.9525 41.2173 42.0413 41.2173C41.1302 41.2173 40.3926 41.9549 40.3926 42.8661C40.3926 43.7338 41.0434 44.4281 41.8678 44.5148L45.5558 51.4137C45.4257 51.674 45.3389 51.9343 45.3389 52.238C45.3389 53.1492 46.0765 53.8868 46.9877 53.8868C47.8988 53.8868 48.6365 53.1492 48.6365 52.238C48.5931 51.3703 47.9856 50.676 47.1612 50.5893Z" fill="#9753DD"/>
<path d="M52.7149 50.5893L49.3306 43.6904C49.4608 43.4301 49.5476 43.1698 49.5476 42.8661C49.5476 41.9549 48.8099 41.2173 47.8988 41.2173C46.9876 41.2173 46.25 41.9549 46.25 42.8661C46.25 43.7338 46.9008 44.4281 47.7252 44.5148L51.1095 51.4137C50.9794 51.674 50.8926 51.9343 50.8926 52.238C50.8926 53.1492 51.6302 53.8868 52.5414 53.8868C53.4525 53.8868 54.1902 53.1492 54.1902 52.238C54.1468 51.3703 53.5393 50.676 52.7149 50.5893Z" fill="white"/>
<path d="M25.6408 23.7313C25.6408 22.6899 24.6428 21.8655 23.5581 22.1259C22.9073 22.256 22.3866 22.7767 22.2565 23.4275C22.1263 24.1218 22.43 24.7726 22.9941 25.1631V50.8927C22.43 51.2398 22.1263 51.934 22.2565 52.6282C22.3866 53.2791 22.9073 53.7997 23.5581 53.9299C24.6862 54.1468 25.6408 53.3224 25.6408 52.3245C25.6408 51.7604 25.3371 51.2398 24.8598 50.9361V25.1197C25.3371 24.816 25.6408 24.2953 25.6408 23.7313Z" fill="#91C95A"/>
<defs>
<linearGradient id="paint0_linear_1469_106" x1="19.9901" y1="38.1109" x2="57.359" y2="38.1109" gradientUnits="userSpaceOnUse">
<stop offset="0.2263" stop-color="#526DE2"/>
<stop offset="1" stop-color="#5241E2"/>
</linearGradient>
</defs>
</svg>
