<svg width="26" height="25" viewBox="0 0 26 25" fill="none" xmlns="http://www.w3.org/2000/svg">
<mask id="mask0_1330_2582" style="mask-type:alpha" maskUnits="userSpaceOnUse" x="0" y="0" width="26" height="25">
<path d="M21.9071 0.744141H18.0516C16.9582 0.744141 15.9512 1.37714 15.462 2.38418L14.5413 4.22563C13.7357 5.89445 12.0381 6.93026 10.1966 6.93026H8.98817V3.56386C8.98817 2.01014 7.72218 0.744141 6.16845 0.744141H3.11855C1.56482 0.744141 0.298828 2.01014 0.298828 3.56386V22.5251C0.298828 23.7623 1.30587 24.7693 2.54309 24.7693H6.7439C7.98113 24.7693 8.98817 23.7623 8.98817 22.5251V19.0148H10.8296C12.4409 19.0148 13.9371 19.9067 14.6852 21.3454L15.8073 23.4746C16.2389 24.2802 17.0733 24.7693 17.994 24.7693H22.5689C24.4391 24.7693 25.6476 22.784 24.7844 21.1152L20.3821 12.656L24.4679 5.03127C25.5037 3.07473 24.1226 0.744141 21.9071 0.744141Z" fill="url(#paint0_linear_1330_2582)"/>
<path d="M5.13281 10.0955C5.13281 10.8724 5.90967 11.4479 6.71531 11.1601C7.00304 11.045 7.23322 10.8149 7.34831 10.5271C7.54972 9.98046 7.34831 9.43378 6.91672 9.14605V4.05329C7.34831 3.76556 7.54972 3.21888 7.34831 2.6722C7.23322 2.38447 7.00304 2.15429 6.71531 2.0392C5.90967 1.75147 5.13281 2.32693 5.13281 3.10379C5.13281 3.47783 5.33423 3.85188 5.65073 4.05329V9.14605C5.30545 9.34746 5.13281 9.7215 5.13281 10.0955Z" fill="white"/>
<path d="M6.88779 21.202V16.2243L10.1679 9.72166H15.5484L18.2242 4.28363C18.7709 4.13976 19.1737 3.59308 19.0586 2.98886C18.9723 2.55727 18.627 2.212 18.1954 2.12568C17.5049 1.98181 16.8719 2.52849 16.8719 3.21904C16.8719 3.44922 16.9295 3.6794 17.0733 3.85204L14.8003 8.48444H9.41978L5.65057 15.9653V21.2307C5.27652 21.4609 5.07511 21.9213 5.16143 22.3816C5.24775 22.8132 5.59302 23.1585 6.02461 23.2448C6.74393 23.3887 7.34815 22.842 7.34815 22.1515C7.34815 21.7486 7.14674 21.4034 6.88779 21.202Z" fill="#8C8C8C"/>
<path d="M17.5056 12.8292L21.9941 4.31249C22.2819 4.28372 22.5408 4.13986 22.7135 3.90968C22.9149 3.65072 23.0012 3.30545 22.9436 2.98895C22.8573 2.58614 22.5121 2.24086 22.1092 2.15454C21.764 2.097 21.4475 2.15454 21.1885 2.38473C20.9296 2.58613 20.7857 2.90263 20.7857 3.24791C20.7857 3.44931 20.8432 3.62195 20.9296 3.79459L16.7863 11.592H11.3195L9.76576 14.6131C9.19031 14.6419 8.70117 15.131 8.70117 15.7352C8.70117 16.3395 9.19031 16.8574 9.82331 16.8574C10.4275 16.8574 10.9454 16.3682 10.9454 15.7352C10.9454 15.5626 10.8879 15.39 10.8304 15.2173L12.0676 12.858H17.5056V12.8292Z" fill="white"/>
<path d="M18.3098 21.0293L15.8642 16.4545C15.9505 16.2819 16.008 16.1092 16.008 15.9078C16.008 15.3036 15.5189 14.8145 14.9146 14.8145C14.3104 14.8145 13.8213 15.3036 13.8213 15.9078C13.8213 16.4833 14.2529 16.9436 14.7996 17.0012L17.2452 21.576C17.1589 21.7487 17.1014 21.9213 17.1014 22.1227C17.1014 22.7269 17.5905 23.2161 18.1947 23.2161C18.799 23.2161 19.2881 22.7269 19.2881 22.1227C19.2593 21.5473 18.8565 21.0869 18.3098 21.0293Z" fill="#9753DD"/>
<path d="M21.9942 21.0293L19.7499 16.4545C19.8362 16.2819 19.8938 16.1092 19.8938 15.9078C19.8938 15.3036 19.4046 14.8145 18.8004 14.8145C18.1962 14.8145 17.707 15.3036 17.707 15.9078C17.707 16.4833 18.1386 16.9436 18.6853 17.0012L20.9296 21.576C20.8432 21.7487 20.7857 21.9213 20.7857 22.1227C20.7857 22.7269 21.2748 23.2161 21.8791 23.2161C22.4833 23.2161 22.9724 22.7269 22.9724 22.1227C22.9437 21.5473 22.5408 21.0869 21.9942 21.0293Z" fill="white"/>
<path d="M4.03949 3.21881C4.03949 2.52826 3.37772 1.98158 2.6584 2.15422C2.22681 2.24054 1.88154 2.58581 1.79522 3.0174C1.7089 3.47776 1.91031 3.90935 2.28436 4.16831V21.2305C1.91031 21.4607 1.7089 21.921 1.79522 22.3814C1.88154 22.813 2.22681 23.1583 2.6584 23.2446C3.40649 23.3885 4.03949 22.8418 4.03949 22.18C4.03949 21.806 3.83808 21.4607 3.52158 21.2593V4.13953C3.83808 3.93812 4.03949 3.59285 4.03949 3.21881Z" fill="#91C95A"/>
</mask>
<g mask="url(#mask0_1330_2582)">
<path d="M21.9071 0.744141H18.0516C16.9582 0.744141 15.9512 1.37714 15.462 2.38418L14.5413 4.22563C13.7357 5.89445 12.0381 6.93026 10.1966 6.93026H8.98817V3.56386C8.98817 2.01014 7.72218 0.744141 6.16845 0.744141H3.11855C1.56482 0.744141 0.298828 2.01014 0.298828 3.56386V22.5251C0.298828 23.7623 1.30587 24.7693 2.54309 24.7693H6.7439C7.98113 24.7693 8.98817 23.7623 8.98817 22.5251V19.0148H10.8296C12.4409 19.0148 13.9371 19.9067 14.6852 21.3454L15.8073 23.4746C16.2389 24.2802 17.0733 24.7693 17.994 24.7693H22.5689C24.4391 24.7693 25.6476 22.784 24.7844 21.1152L20.3821 12.656L24.4679 5.03127C25.5037 3.07473 24.1226 0.744141 21.9071 0.744141Z" fill="url(#paint1_linear_1330_2582)"/>
<path d="M5.13281 10.0955C5.13281 10.8724 5.90967 11.4479 6.71531 11.1601C7.00304 11.045 7.23322 10.8149 7.34831 10.5271C7.54972 9.98046 7.34831 9.43378 6.91672 9.14605V4.05329C7.34831 3.76556 7.54972 3.21888 7.34831 2.6722C7.23322 2.38447 7.00304 2.15429 6.71531 2.0392C5.90967 1.75147 5.13281 2.32693 5.13281 3.10379C5.13281 3.47783 5.33423 3.85188 5.65073 4.05329V9.14605C5.30545 9.34746 5.13281 9.7215 5.13281 10.0955Z" fill="#8C8C8C"/>
<path d="M6.88779 21.202V16.2243L10.1679 9.72166H15.5484L18.2242 4.28363C18.7709 4.13976 19.1737 3.59308 19.0586 2.98886C18.9723 2.55727 18.627 2.212 18.1954 2.12568C17.5049 1.98181 16.8719 2.52849 16.8719 3.21904C16.8719 3.44922 16.9295 3.6794 17.0733 3.85204L14.8003 8.48444H9.41978L5.65057 15.9653V21.2307C5.27652 21.4609 5.07511 21.9213 5.16143 22.3816C5.24775 22.8132 5.59302 23.1585 6.02461 23.2448C6.74393 23.3887 7.34815 22.842 7.34815 22.1515C7.34815 21.7486 7.14674 21.4034 6.88779 21.202Z" fill="#8C8C8C"/>
<path d="M17.5056 12.8292L21.9941 4.31249C22.2819 4.28372 22.5408 4.13986 22.7135 3.90968C22.9149 3.65072 23.0012 3.30545 22.9436 2.98895C22.8573 2.58614 22.5121 2.24086 22.1092 2.15454C21.764 2.097 21.4475 2.15454 21.1885 2.38473C20.9296 2.58613 20.7857 2.90263 20.7857 3.24791C20.7857 3.44931 20.8432 3.62195 20.9296 3.79459L16.7863 11.592H11.3195L9.76576 14.6131C9.19031 14.6419 8.70117 15.131 8.70117 15.7352C8.70117 16.3395 9.19031 16.8574 9.82331 16.8574C10.4275 16.8574 10.9454 16.3682 10.9454 15.7352C10.9454 15.5626 10.8879 15.39 10.8304 15.2173L12.0676 12.858H17.5056V12.8292Z" fill="#91C95A"/>
<path d="M18.3098 21.0293L15.8642 16.4545C15.9505 16.2819 16.008 16.1092 16.008 15.9078C16.008 15.3036 15.5189 14.8145 14.9146 14.8145C14.3104 14.8145 13.8213 15.3036 13.8213 15.9078C13.8213 16.4833 14.2529 16.9436 14.7996 17.0012L17.2452 21.576C17.1589 21.7487 17.1014 21.9213 17.1014 22.1227C17.1014 22.7269 17.5905 23.2161 18.1947 23.2161C18.799 23.2161 19.2881 22.7269 19.2881 22.1227C19.2593 21.5473 18.8565 21.0869 18.3098 21.0293Z" fill="#9753DD"/>
<path d="M21.9942 21.0293L19.7499 16.4545C19.8362 16.2819 19.8938 16.1092 19.8938 15.9078C19.8938 15.3036 19.4046 14.8145 18.8004 14.8145C18.1962 14.8145 17.707 15.3036 17.707 15.9078C17.707 16.4833 18.1386 16.9436 18.6853 17.0012L20.9296 21.576C20.8432 21.7487 20.7857 21.9213 20.7857 22.1227C20.7857 22.7269 21.2748 23.2161 21.8791 23.2161C22.4833 23.2161 22.9724 22.7269 22.9724 22.1227C22.9437 21.5473 22.5408 21.0869 21.9942 21.0293Z" fill="#91C95A"/>
<path d="M4.03949 3.21881C4.03949 2.52826 3.37772 1.98158 2.6584 2.15422C2.22681 2.24054 1.88154 2.58581 1.79522 3.0174C1.7089 3.47776 1.91031 3.90935 2.28436 4.16831V21.2305C1.91031 21.4607 1.7089 21.921 1.79522 22.3814C1.88154 22.813 2.22681 23.1583 2.6584 23.2446C3.40649 23.3885 4.03949 22.8418 4.03949 22.18C4.03949 21.806 3.83808 21.4607 3.52158 21.2593V4.13953C3.83808 3.93812 4.03949 3.59285 4.03949 3.21881Z" fill="#91C95A"/>
<g style="mix-blend-mode:color">
<rect y="-2" width="25" height="30" fill="#C4C4C4"/>
</g>
</g>
<defs>
<linearGradient id="paint0_linear_1330_2582" x1="0.292268" y1="12.7541" x2="25.0729" y2="12.7541" gradientUnits="userSpaceOnUse">
<stop offset="0.2263" stop-color="#526DE2"/>
<stop offset="1" stop-color="#5241E2"/>
</linearGradient>
<linearGradient id="paint1_linear_1330_2582" x1="0.292268" y1="12.7541" x2="25.0729" y2="12.7541" gradientUnits="userSpaceOnUse">
<stop offset="0.2263" stop-color="#526DE2"/>
<stop offset="1" stop-color="#5241E2"/>
</linearGradient>
</defs>
</svg>
