<svg width="128" height="40" viewBox="0 0 128 40" fill="none" xmlns="http://www.w3.org/2000/svg">
<path d="M8.9103 34.5666L8.91026 34.5665L0.5 29.7111V10.2888L8.91027 5.43274L8.91028 5.43273L17.3198 0.577342L25.7308 5.43273L25.7308 5.43275L34.1411 10.2888V29.7111L25.7308 34.5665L17.3198 39.4226L8.9103 34.5666ZM17.5698 4.23009L16.8198 3.79711V4.37808L10.4307 8.06696L3.79159 11.9002L3.5416 12.0445V12.3332V27.6661V27.9548L3.7916 28.0991L10.4307 31.9323L17.0698 35.7655L17.3198 35.9099L17.5698 35.7655L24.2096 31.9323L24.2096 31.9323L30.8487 28.0991L31.0987 27.9548V27.6661V12.3296V12.0409L30.8487 11.8965L24.2096 8.06332L24.2096 8.06331L17.5698 4.23009Z" fill="#4460F1" stroke="#1F5EC4"/>
<path d="M44.8497 16.9687V9.77014H41.8994V8.20888H49.688V9.76543H46.7378V16.964L44.8497 16.9687ZM50.7041 16.9687V8.20888H57.1864V9.76543H52.5981V11.7291H56.9315V13.2856H52.5981V15.4098H57.3846V16.9664L50.7041 16.9687ZM57.8024 16.9687L60.8459 12.5186L58.0467 8.20888H60.2074L61.9823 10.9585L63.8185 8.20534H65.781L62.97 12.364L66.0135 16.9664H63.7595L61.843 13.9595L59.8569 16.9687H57.8024ZM66.8525 16.9687V8.20888H68.7466V11.5781H72.3942V8.20888H74.2824V16.9687H72.3942V13.1346H68.7466V16.9687H66.8525ZM79.9516 8C81.2757 8 82.3118 8.40595 83.0647 9.21904C83.8176 10.0321 84.1917 11.1709 84.1917 12.6C84.1917 14.0291 83.82 15.1443 83.0647 15.9456C82.3094 16.7717 81.2638 17.1776 79.9162 17.1776C78.7196 17.1776 77.7448 16.8413 77.0013 16.1674C76.1057 15.365 75.6525 14.1684 75.6525 12.6C75.6525 11.1591 76.0242 10.0333 76.7795 9.21904C77.5348 8.40477 78.5921 8 79.9516 8ZM79.8938 9.56835C79.5622 9.55696 79.2328 9.62732 78.9348 9.77323C78.6369 9.91914 78.3793 10.1361 78.185 10.405C77.779 10.9396 77.5808 11.6713 77.5808 12.6C77.5808 13.5287 77.779 14.2521 78.185 14.7844C78.3855 15.0515 78.6476 15.2662 78.9491 15.41C79.2506 15.5539 79.5824 15.6226 79.9162 15.6104C80.219 15.6196 80.5202 15.563 80.7991 15.4446C81.078 15.3263 81.3279 15.1489 81.5317 14.9248C82.0191 14.3902 82.2634 13.6125 82.2634 12.6012C82.2634 11.6725 82.0663 10.9408 81.6474 10.4062C81.2296 9.84803 80.649 9.56953 79.8938 9.56953V9.56835ZM84.7841 15.2954C84.83 15.3034 84.8767 15.3073 84.9233 15.3072C85.4933 15.3072 85.8674 14.9472 86.0385 14.238C86.2096 13.5287 86.2828 12.3911 86.2828 10.8228V8.20888H92.7544V16.9687H90.8663V9.77014H88.1828V11.1532C88.1828 12.8372 88.0647 14.0917 87.8216 14.8941C87.6021 15.66 87.241 16.2064 86.7655 16.5463C86.3542 16.8451 85.8577 17.0035 85.3493 16.9982C85.1865 16.9982 85.0012 16.9876 84.7912 16.9758V15.2954H84.7841ZM98.4118 8C99.7359 8 100.772 8.40595 101.525 9.21904C102.278 10.0321 102.652 11.1709 102.652 12.6C102.652 14.0291 102.28 15.1443 101.525 15.9456C100.771 16.7717 99.7253 17.1776 98.3776 17.1776C97.1798 17.1776 96.2051 16.8413 95.4604 16.1674C94.5671 15.365 94.1127 14.1684 94.1127 12.6C94.1127 11.1591 94.4856 10.0333 95.2397 9.21904C95.9938 8.40477 97.0523 8 98.4118 8ZM98.354 9.56835C98.0225 9.55684 97.6934 9.62716 97.3955 9.77309C97.0977 9.91902 96.8404 10.1361 96.6464 10.405C96.2393 10.9396 96.041 11.6713 96.041 12.6C96.041 13.5287 96.2393 14.2521 96.6464 14.7844C97.0535 15.3166 97.646 15.6104 98.3776 15.6104C98.6801 15.6197 98.981 15.5632 99.2595 15.4448C99.538 15.3264 99.7875 15.149 99.9908 14.9248C100.481 14.3902 100.724 13.6125 100.724 12.6012C100.724 11.6725 100.527 10.9408 100.109 10.4062C99.6899 9.84803 99.1092 9.56953 98.354 9.56953V9.56835ZM104.011 16.9687V8.20888H109.843V9.76543H105.905V16.964L104.011 16.9687ZM118.221 16.9687H116.434V11.0553L112.787 16.9687H110.898V8.20888H112.676V14.1223L116.323 8.20888H118.211V16.9687H118.221ZM127.2 16.9687H125.415V11.0553L121.766 16.9687H119.885V8.20888H121.662V14.1223L125.31 8.20888H127.198V16.9687H127.2Z" fill="#4C4D52"/>
<path d="M42.9209 30.2718V21.512H43.747V25.2529H48.9063V21.512H49.7324V30.2718H48.9063V25.9857H43.747V30.2718H42.9209ZM50.6246 30.2718L54.0197 21.512H55.0818L58.4651 30.2718H57.5659L56.6785 27.9376H52.3121L51.4129 30.2718H50.6246ZM52.5883 27.2437H56.4224L54.5165 22.2602L52.5883 27.2437ZM60.7415 21.5155H66.0307V29.5319H66.6455V32.0762H65.8195V30.2718H59.3467V32.0727H58.5206V29.5284C58.676 29.5314 58.8305 29.5032 58.9748 29.4454C59.1191 29.3877 59.2504 29.3015 59.3608 29.192C59.7986 28.7389 60.1538 27.9718 60.4229 26.8802C60.5413 26.4338 60.6281 25.9795 60.6825 25.5208C60.7191 25.1136 60.7427 24.5908 60.7427 23.9406V21.512L60.7415 21.5155ZM60.0193 29.5319H65.2023V22.2566H61.4885V24.1448C61.4885 25.4818 61.3233 26.6537 61.0035 27.6414C60.8568 28.1615 60.6379 28.6584 60.3533 29.1177C60.2579 29.2647 60.1468 29.4009 60.0217 29.5236L60.0193 29.5319ZM67.8516 30.2754V21.512H73.8394V22.2448H68.68V25.4393H73.5798V26.171H68.68V29.5402H74.0282V30.2718L67.8516 30.2754ZM79.6254 21.5155H80.4515V25.2564H81.3956L84.1995 21.5155H85.2085L82.1107 25.5916L85.5058 30.273H84.5004L81.3767 25.9987H80.4538V30.273H79.6278V25.9975H78.7049L75.5812 30.2718H74.5746L77.9686 25.5916L74.8684 21.5132H75.8751L78.679 25.2541H79.6231V21.5132L79.6254 21.5155ZM86.4535 30.2754V21.512H87.2795V25.2529H92.4389V21.512H93.265V30.2718H92.4389V25.9857H87.2795V30.2718L86.4535 30.2754ZM98.7937 21.3066C100.06 21.3066 101.054 21.702 101.776 22.5033C102.498 23.3045 102.877 24.4551 102.877 25.896C102.877 27.3369 102.51 28.4639 101.776 29.277C101.042 30.0901 100.072 30.4854 98.8256 30.4854C97.6762 30.4854 96.7427 30.1597 96.0323 29.4977C95.1567 28.6846 94.7189 27.4915 94.7189 25.896C94.7189 24.4433 95.0858 23.3163 95.8199 22.5033C96.5539 21.6902 97.5357 21.3066 98.789 21.3066H98.7937ZM98.7937 22.0277C97.7883 22.0277 97.0082 22.3994 96.4335 23.1653C95.9013 23.8509 95.6287 24.769 95.6287 25.896C95.6287 27.023 95.9013 27.9293 96.4335 28.6374C97.0141 29.3927 97.7942 29.7644 98.776 29.7644C99.6988 29.7644 100.445 29.4505 101.012 28.8356C101.664 28.1276 101.982 27.1387 101.982 25.896C101.982 24.769 101.711 23.8509 101.179 23.1653C100.598 22.3994 99.805 22.0277 98.7996 22.0277H98.7937ZM111.348 23.8745L110.522 24.0834C110.355 23.5146 110.131 23.0614 109.835 22.7357C109.373 22.2637 108.747 22.0159 107.93 22.0159C106.9 22.0159 106.132 22.4112 105.599 23.2113C105.138 23.8981 104.913 24.8269 104.913 26.0011C104.913 27.1163 105.162 28.0072 105.647 28.6846C106.179 29.4045 106.925 29.7644 107.895 29.7644C108.839 29.7644 109.561 29.4391 110.06 28.7884C110.355 28.4167 110.545 27.9175 110.65 27.3133L111.502 27.4408C111.064 29.4741 109.857 30.4854 107.858 30.4854C106.816 30.4854 105.97 30.1833 105.302 29.5673C104.45 28.7648 104.012 27.5694 104.012 25.9775C104.012 24.5023 104.366 23.3635 105.066 22.5269C105.763 21.7138 106.71 21.3066 107.917 21.3066C108.911 21.3066 109.704 21.5509 110.295 22.0277C110.815 22.469 111.171 23.0898 111.348 23.8745ZM115.202 30.2754V22.2507H111.96V21.5179H119.277V22.2507H116.035V30.2754H115.202ZM127.188 30.2754H126.362V22.5469L121.546 30.2718H120.458V21.512H121.284V29.2263L126.088 21.512H127.188V30.2718V30.2754Z" fill="#4C4D52" stroke="#4C4D52" stroke-width="0.8"/>
<path d="M23.2054 19.0833L23.7053 19.0832V18.5833V12.8289H27.1571V28.3312H23.7053V22.5884V22.0884H23.2053H17.8203V19.0839L23.2054 19.0833Z" fill="#4460F1" stroke="#1F5EC4"/>
<path d="M11.8976 16.3726V15.8726H11.3976H6.75293V12.8289H20.4949V15.8726H15.8495H15.3495V16.3726V28.3319H11.8976V16.3726Z" fill="#4460F1" stroke="#1F5EC4"/>
</svg>
