<svg width="110" height="23" viewBox="0 0 110 23" fill="none" xmlns="http://www.w3.org/2000/svg">
<path d="M4.38965 16.8071C5.09554 17.6825 5.81447 18.7833 6.19069 19.4482C6.64887 20.3126 6.83885 20.8963 7.17969 21.9417C7.37897 22.5142 7.56895 22.6878 7.96753 22.6878C8.40335 22.6878 8.60264 22.396 8.75537 21.9417C9.07386 20.9609 9.31971 20.2147 9.70897 19.5036C11.2102 16.6962 13.6575 14.7015 15.0357 11.968C15.0357 11.968 15.9428 10.2983 15.9428 7.96006C15.9428 5.78063 15.0488 4.26611 15.0488 4.26611L4.39524 16.8255L4.38965 16.8071Z" fill="#34A853"/>
<path d="M0.775733 11.6732C1.63435 13.6126 3.27149 15.3118 4.389 16.8078L10.3118 9.84474C10.3118 9.84474 9.47551 10.9308 7.96501 10.9308C6.28131 10.9308 4.9105 9.60094 4.9105 7.92019C4.9105 6.76399 5.60522 5.9624 5.60522 5.9624C1.24695 6.60515 1.48907 7.65238 0.762695 11.6695L0.775733 11.6732Z" fill="#FBBC04"/>
<path d="M10.3874 0.364258C12.3617 0.994076 14.0379 2.32205 15.0437 4.26137L10.3129 9.8577C10.3129 9.8577 11.0076 9.05242 11.0076 7.89991C11.0076 6.18407 9.54744 4.88934 7.97176 4.88934C6.47617 4.88934 5.625 5.96244 5.625 5.96244C5.98819 5.14238 9.74114 0.643151 10.393 0.366105L10.3874 0.364258Z" fill="#4285F4"/>
<path d="M1.85742 2.82587C3.03453 1.43695 5.09818 0 7.94782 0C9.32421 0 10.3691 0.362007 10.3691 0.362007L5.61969 5.95834C5.29934 5.78602 2.17405 3.37257 1.85742 2.81848V2.82587Z" fill="#1A73E8"/>
<path d="M0.776666 11.6733C0.776666 11.6733 0 10.144 0 7.94237C0 5.85529 0.823228 4.02679 1.86251 2.84473L5.62477 5.98458L0.782253 11.6733H0.776666Z" fill="#EA4335"/>
<path fill-rule="evenodd" clip-rule="evenodd" d="M67.6751 12.1294L71.1765 10.6721C70.9819 10.1807 70.4068 9.84176 69.7218 9.84176C68.8464 9.83752 67.6328 10.6128 67.6751 12.1294ZM71.7854 13.5401L73.1217 14.4297C72.6903 15.0694 71.6543 16.1708 69.8571 16.1708C67.6328 16.1708 66.0258 14.4466 66.0258 12.248C66.0258 9.91378 67.6455 8.32515 69.6668 8.32515C71.5232 8.3887 72.6777 9.58758 73.1978 11.2652L67.9542 13.4342C68.3559 14.2221 68.9775 14.6246 69.8529 14.6246C70.724 14.6246 71.3329 14.1925 71.7769 13.5401H71.7854ZM63.2772 15.9336H64.9983V4.41079H63.2772V15.9336ZM60.4693 12.2607C60.4693 10.8797 59.5474 9.86718 58.3761 9.86718C57.192 9.86718 56.194 10.8797 56.194 12.2607C56.194 13.629 57.1878 14.6246 58.3761 14.6246C59.5516 14.6246 60.4693 13.629 60.4693 12.2607ZM61.9832 8.56239V15.5947C61.9832 18.4923 60.279 19.6827 58.2619 19.6827C56.3632 19.6827 55.2214 18.4034 54.7901 17.3655L56.2871 16.7427C56.5535 17.3824 57.2089 18.1407 58.2619 18.1407C60.186 17.9217 60.3551 16.675 60.3551 15.2727H60.2917C59.9069 15.7472 59.1626 16.1666 58.228 16.1666C56.2701 16.1666 54.4729 14.4594 54.4729 12.2565C54.4729 10.0409 56.2659 8.31668 58.228 8.31668C59.1626 8.31668 59.9069 8.73184 60.2917 9.1936H60.3509V8.55392C60.3509 8.54968 61.9832 8.54968 61.9832 8.54968V8.56239ZM43.2076 12.248C43.2076 10.8373 42.2011 9.87141 41.0382 9.87141C39.8711 9.87141 38.8689 10.8373 38.8689 12.248C38.8689 13.646 39.8753 14.6246 41.0382 14.6246C42.2011 14.6246 43.2076 13.6417 43.2076 12.248ZM44.8991 12.248C44.8991 14.506 43.1653 16.1708 41.0382 16.1708C38.9112 16.1708 37.1774 14.506 37.1774 12.248C37.1774 9.97309 38.9112 8.32515 41.0382 8.32515C43.1653 8.32515 44.8991 9.97309 44.8991 12.248ZM51.8765 12.248C51.8765 10.8373 50.87 9.87141 49.7071 9.87141C48.54 9.87141 47.5378 10.8373 47.5378 12.248C47.5378 13.646 48.5442 14.6246 49.7071 14.6246C50.87 14.6246 51.8765 13.6417 51.8765 12.248ZM53.568 12.248C53.568 14.506 51.8342 16.1708 49.7071 16.1708C47.5801 16.1708 45.8463 14.506 45.8463 12.248C45.8463 9.97309 47.5801 8.32515 49.7071 8.32515C51.8342 8.32515 53.568 9.97309 53.568 12.248ZM30.5636 16.1708C27.2144 16.1708 24.3896 13.4342 24.3896 10.0705C24.3896 6.71112 27.2102 3.97021 30.5636 3.97021C32.42 3.97021 33.7394 4.69886 34.7332 5.65203L33.5618 6.8255C32.8514 6.15616 31.8872 5.63509 30.5636 5.63509C28.1152 5.63509 26.208 7.61345 26.208 10.0409C26.208 12.4937 28.1236 14.4466 30.5636 14.4466C32.1494 14.4466 33.0543 13.807 33.6337 13.2266C34.1073 12.7521 34.4202 12.0658 34.5386 11.1296H30.5636V9.46473H36.1456C36.2048 9.76127 36.2344 10.1171 36.2344 10.5026C36.2344 11.7523 35.8918 13.2986 34.7966 14.3958C33.7309 15.5184 32.3651 16.1158 30.5678 16.1158" fill="#5F6368"/>
<path d="M77.2393 15.8462V5.60254H78.5598L82.111 11.8417H82.1646L85.7158 5.60254H87.0363V15.8462H85.7162L85.7697 8.05173H85.7162L82.5219 13.6652H81.7545L78.5602 8.05173H78.5067C78.6041 10.6444 78.5602 13.254 78.5602 15.8462H77.2393ZM91.1586 16.025C90.4091 16.025 89.8023 15.8105 89.3027 15.3814C88.803 14.9524 88.5532 14.3803 88.5532 13.6827C88.5532 12.9139 88.8565 12.324 89.4454 11.8949C90.0343 11.4659 90.766 11.2513 91.6226 11.2513C92.3899 11.2513 93.0323 11.3944 93.5142 11.6804C93.5014 10.1934 92.4756 9.7854 91.6761 9.7854C90.9213 9.82133 90.2663 10.1376 89.9986 10.8044L88.803 10.286C88.9636 9.87479 89.2848 9.48107 89.7667 9.12394C90.2485 8.76682 90.8731 8.58762 91.6583 8.58762C92.5505 8.58762 93.3 8.85578 93.8889 9.37422C94.4778 9.89267 94.7812 10.6435 94.7812 11.591V15.8279H93.532V14.8626C92.9484 15.5955 92.1597 16.0085 91.1586 16.0246V16.025ZM93.5142 12.7713C92.745 12.1849 91.1407 12.1117 90.3912 12.7177C89.8023 13.2898 89.7399 14.0567 90.3555 14.5054C91.8439 15.4619 93.5677 13.9727 93.5142 12.7713ZM99.9028 16.025C99.3674 16.025 98.8856 15.9177 98.4752 15.6853C98.0647 15.4529 97.7435 15.1669 97.5294 14.8272H97.458L97.5115 15.7926V18.8854H96.2088V8.7847H97.458V9.75007H97.5115C97.7257 9.41041 98.029 9.12437 98.4573 8.89196C98.8856 8.65956 99.3674 8.55229 99.8849 8.55229C100.795 8.55229 101.562 8.90984 102.223 9.62493C102.883 10.34 103.204 11.2339 103.204 12.2886C103.204 13.3434 102.883 14.2373 102.223 14.9524C101.58 15.6675 100.795 16.025 99.9028 16.025ZM99.6886 14.8094C100.295 14.8094 100.813 14.5769 101.259 14.1121C101.705 13.6473 101.919 13.0395 101.919 12.2708C101.919 11.502 101.705 10.8942 101.259 10.4294C100.813 9.9646 100.295 9.7322 99.6886 9.7322C99.064 9.7322 98.5465 9.9646 98.1182 10.4115C97.69 10.8763 97.4758 11.4842 97.4758 12.2529C97.4758 13.0216 97.69 13.6473 98.1182 14.0943C98.5465 14.5948 99.064 14.8094 99.6886 14.8094ZM107.041 16.025C106.256 16.025 105.613 15.8284 105.114 15.4529C104.596 15.0775 104.239 14.5948 103.989 14.0227L105.167 13.5401C105.542 14.416 106.166 14.863 107.059 14.863C107.469 14.863 107.808 14.774 108.058 14.5948C108.326 14.416 108.451 14.1836 108.451 13.8797C108.451 13.4149 108.129 13.111 107.487 12.9501L106.077 12.6104C105.631 12.5032 105.203 12.2708 104.81 11.9669C104.418 11.6629 104.203 11.216 104.203 10.6797C104.203 10.054 104.471 9.55342 105.024 9.178C105.578 8.7847 106.22 8.60592 106.97 8.60592C107.594 8.60592 108.147 8.74895 108.629 9.03498C109.111 9.32102 109.468 9.71432 109.664 10.2506L108.522 10.7154C108.272 10.0897 107.737 9.78583 106.916 9.78583C106.523 9.78583 106.202 9.87479 105.935 10.0361C105.668 10.1974 105.542 10.4115 105.542 10.6976C105.542 11.0909 105.846 11.3769 106.47 11.5199L107.862 11.8417C108.522 12.0026 109.004 12.2529 109.326 12.6283C109.647 13.0037 109.789 13.4149 109.789 13.8797C109.789 14.5054 109.54 15.0418 109.022 15.4529C108.522 15.8105 107.862 16.025 107.041 16.025H107.041Z" fill="#63666A"/>
</svg>
