<svg width="54" height="23" viewBox="0 0 54 23" fill="none" xmlns="http://www.w3.org/2000/svg">
<path d="M22.6889 11.3442C22.6889 9.94866 22.4244 8.61759 21.9635 7.38296C21.8415 11.4468 17.711 14.5931 15.286 16.6752H21.356C22.2045 15.0854 22.6889 13.2717 22.6889 11.3442ZM18.3007 2.39609C16.3789 0.899794 13.9692 0 11.3447 0C5.07923 0 0 5.07923 0 11.3442C0 17.6091 5.07923 22.6882 11.3447 22.6882C14.2137 22.6882 16.8261 21.6148 18.8239 19.8581H10.6107L10.5857 17.4462C15.5344 13.1441 18.5681 10.2347 18.5681 7.42449C18.5681 6.38008 18.1702 5.06212 16.38 5.06212C14.9623 5.06212 13.5948 5.88329 13.8433 9.31458H10.959C10.2376 5.33619 12.4011 2.17775 16.5287 2.17775C17.1687 2.17775 17.7606 2.25414 18.3007 2.39609Z" fill="#A3C626"/>
<path d="M33.2112 7.84107H35.8945C35.9863 5.80014 35.2985 2.56592 30.8723 2.56592C27.6153 2.56592 25.2529 4.51577 25.2529 8.57501C25.2529 9.12548 25.2757 11.9693 25.2757 13.7352C25.2757 18.1391 28.3264 19.1021 30.8951 19.1021C32.4318 19.1021 34.6563 18.7579 35.6883 17.6342V10.6161H30.6426V13.162H32.8904V16.2582C31.193 16.8315 28.0968 17.061 28.0968 13.162V8.57501C28.0968 5.8457 29.3584 4.90548 30.7571 4.90548C32.2022 4.90548 33.2112 5.63942 33.2112 7.84107ZM53.1708 14.6524C53.2853 8.36873 46.0842 10.4554 46.1525 6.94659C46.1753 5.7084 46.9781 4.90548 48.2858 4.90548C49.6847 4.90548 50.5098 5.73116 50.487 7.88724H53.1245C53.1935 5.93744 52.7348 2.6121 48.3775 2.6121C45.671 2.6121 43.4466 3.94255 43.4004 6.90089C43.2859 12.9323 50.5332 10.9601 50.4186 14.6069C50.3725 16.0975 49.2943 16.7625 48.0791 16.7625C46.6574 16.7625 45.5105 15.9368 45.74 13.4599H43.079C42.781 16.7397 44.2261 19.0793 48.0563 19.0793C51.2899 19.0793 53.1245 17.29 53.1708 14.6524ZM41.0545 18.8724H38.3486V2.81837H41.0545V18.8724ZM41.0545 18.8724H38.3486V2.81837H41.0545V18.8724Z" fill="#434242"/>
</svg>
