<svg width="77" height="77" viewBox="0 0 77 77" fill="none" xmlns="http://www.w3.org/2000/svg">
<circle cx="38.5" cy="38.5" r="38.5" fill="white"/>
<path fill-rule="evenodd" clip-rule="evenodd" d="M64.6595 36.3018C64.6595 40.7635 64.6595 43.0373 64.6595 43.0373C64.6595 43.0373 64.3163 41.9219 62.7289 41.2354C62.7289 41.2354 44.539 30.7247 41.6646 28.7084C38.7903 26.6921 35.9159 28.8371 35.9159 28.8371C35.9159 28.8371 16.4818 40.6348 14.9803 41.4499C14.251 41.8361 13.3501 42.6512 13.0069 43.4663C13.0069 43.4663 12.964 36.216 13.0927 35.787C13.2214 35.3151 13.9078 34.6287 13.9078 34.6287C13.9078 34.6287 35.2724 21.5011 37.0742 20.643C38.8761 19.785 40.635 20.6001 40.635 20.6001C40.635 20.6001 61.1416 32.7411 62.686 33.6849C64.2305 34.6716 64.6595 36.3018 64.6595 36.3018Z" fill="url(#paint0_linear_1469_105)"/>
<path fill-rule="evenodd" clip-rule="evenodd" d="M64.6595 29.0087C64.6595 33.4704 64.6595 38.1466 64.6595 38.1466C64.6595 38.1466 64.3163 34.6287 62.7289 33.9423C62.7289 33.9423 44.539 23.4316 41.6646 21.4152C38.7903 19.3989 35.9159 21.544 35.9159 21.544C35.9159 21.544 16.4818 33.3417 14.9803 34.1568C13.3501 35.1006 13.3072 37.117 13.0069 37.975C13.0069 37.975 12.964 28.9658 13.0927 28.5368C13.2214 28.0649 13.9078 27.3785 13.9078 27.3785C13.9078 27.3785 35.2724 14.2508 37.0742 13.3928C38.8761 12.5348 40.635 13.3499 40.635 13.3499C40.635 13.3499 61.1416 25.4908 62.686 26.4346C64.2734 27.3785 64.6595 29.0087 64.6595 29.0087Z" fill="url(#paint1_linear_1469_105)"/>
<path fill-rule="evenodd" clip-rule="evenodd" d="M64.6595 47.2844C64.6595 42.8227 64.6595 38.1465 64.6595 38.1465C64.6595 38.1465 64.3163 41.6644 62.7289 42.3508C62.7289 42.3508 44.539 52.8615 41.6646 54.8778C38.7903 56.8942 35.9159 54.7491 35.9159 54.7491C35.9159 54.7491 16.4818 42.9514 14.9803 42.1363C13.3501 41.1924 13.3072 39.1761 13.0069 38.361C13.0069 38.361 12.964 47.3273 13.0927 47.7992C13.2214 48.2282 13.9078 48.9146 13.9078 48.9146C13.9078 48.9146 35.2724 62.0423 37.0742 62.9003C38.8761 63.7583 40.635 62.9432 40.635 62.9432C40.635 62.9432 61.1416 50.8022 62.686 49.8584C64.2305 48.9146 64.6595 47.2844 64.6595 47.2844Z" fill="url(#paint2_linear_1469_105)"/>
<path fill-rule="evenodd" clip-rule="evenodd" d="M64.6595 39.8197C64.6595 35.358 64.6595 33.0843 64.6595 33.0843C64.6595 33.0843 64.3163 34.1997 62.7289 34.8861C62.7289 34.8861 44.539 45.3968 41.6646 47.4132C38.7903 49.4295 35.9159 47.2845 35.9159 47.2845C35.9159 47.2845 16.4818 35.4867 14.9803 34.6716C14.251 34.2855 13.3501 33.4704 13.0069 32.6553C13.0069 32.6553 12.964 39.9055 13.0927 40.3345C13.2214 40.8064 13.9078 41.4928 13.9078 41.4928C13.9078 41.4928 35.2724 54.6205 37.0742 55.4785C38.8761 56.3365 40.635 55.5214 40.635 55.5214C40.635 55.5214 61.1416 43.3805 62.686 42.4367C64.2305 41.4499 64.6595 39.8197 64.6595 39.8197Z" fill="url(#paint3_linear_1469_105)"/>
<path fill-rule="evenodd" clip-rule="evenodd" d="M27.808 33.7278C22.188 37.117 26.6497 41.6644 26.6497 41.6644L20.6436 38.0608C20.6865 38.0608 26.6497 34.4571 27.808 33.7278Z" fill="#91C95A"/>
<path fill-rule="evenodd" clip-rule="evenodd" d="M50.1162 33.7278C55.7362 37.117 51.2745 41.6644 51.2745 41.6644L57.2807 38.0608C57.2378 38.0608 51.2745 34.4571 50.1162 33.7278Z" fill="#91C95A"/>
<defs>
<linearGradient id="paint0_linear_1469_105" x1="13.0107" y1="31.883" x2="64.6512" y2="31.883" gradientUnits="userSpaceOnUse">
<stop stop-color="#A98CDD"/>
<stop offset="1" stop-color="#9753DD"/>
</linearGradient>
<linearGradient id="paint1_linear_1469_105" x1="13.0107" y1="25.5616" x2="64.6591" y2="25.5616" gradientUnits="userSpaceOnUse">
<stop offset="0.2263" stop-color="#526DE2"/>
<stop offset="1" stop-color="#5241E2"/>
</linearGradient>
<linearGradient id="paint2_linear_1469_105" x1="13.0069" y1="50.7256" x2="64.6504" y2="50.7256" gradientUnits="userSpaceOnUse">
<stop stop-color="#5241E2"/>
<stop offset="0.847" stop-color="#526DE2"/>
</linearGradient>
<linearGradient id="paint3_linear_1469_105" x1="13.0107" y1="44.2413" x2="64.6512" y2="44.2413" gradientUnits="userSpaceOnUse">
<stop stop-color="#9753DD"/>
<stop offset="1" stop-color="#A98CDD"/>
</linearGradient>
</defs>
</svg>
