<svg width="29" height="28" viewBox="0 0 29 28" fill="none" xmlns="http://www.w3.org/2000/svg">
<mask id="mask0_1330_2540" style="mask-type:alpha" maskUnits="userSpaceOnUse" x="0" y="0" width="29" height="28">
<path fill-rule="evenodd" clip-rule="evenodd" d="M28.3555 12.8877C28.3555 15.3367 28.3555 16.5848 28.3555 16.5848C28.3555 16.5848 28.1671 15.9725 27.2958 15.5958C27.2958 15.5958 17.3115 9.82651 15.7338 8.71976C14.1561 7.61301 12.5784 8.7904 12.5784 8.7904C12.5784 8.7904 1.91115 15.2661 1.08697 15.7135C0.686658 15.9254 0.192151 16.3728 0.00376767 16.8202C0.00376767 16.8202 -0.0197803 12.8406 0.0508635 12.6052C0.121507 12.3461 0.498274 11.9694 0.498274 11.9694C0.498274 11.9694 12.2251 4.76371 13.2142 4.29275C14.2032 3.82179 15.1686 4.2692 15.1686 4.2692C15.1686 4.2692 26.4245 10.9333 27.2723 11.4513C28.12 11.9929 28.3555 12.8877 28.3555 12.8877Z" fill="url(#paint0_linear_1330_2540)"/>
<path fill-rule="evenodd" clip-rule="evenodd" d="M28.3555 8.8847C28.3555 11.3337 28.3555 13.9004 28.3555 13.9004C28.3555 13.9004 28.1671 11.9695 27.2958 11.5927C27.2958 11.5927 17.3115 5.82347 15.7338 4.71672C14.1561 3.60997 12.5784 4.78736 12.5784 4.78736C12.5784 4.78736 1.91115 11.263 1.08697 11.7105C0.192151 12.2285 0.168603 13.3353 0.00376767 13.8062C0.00376767 13.8062 -0.0197803 8.86115 0.0508635 8.62567C0.121507 8.36665 0.498274 7.98988 0.498274 7.98988C0.498274 7.98988 12.2251 0.784214 13.2142 0.313256C14.2032 -0.157703 15.1686 0.289708 15.1686 0.289708C15.1686 0.289708 26.4245 6.95377 27.2723 7.47183C28.1435 7.98988 28.3555 8.8847 28.3555 8.8847Z" fill="url(#paint1_linear_1330_2540)"/>
<path fill-rule="evenodd" clip-rule="evenodd" d="M28.3555 18.9161C28.3555 16.4671 28.3555 13.9004 28.3555 13.9004C28.3555 13.9004 28.1671 15.8313 27.2958 16.2081C27.2958 16.2081 17.3115 21.9773 15.7338 23.0841C14.1561 24.1908 12.5784 23.0134 12.5784 23.0134C12.5784 23.0134 1.91115 16.5378 1.08697 16.0903C0.192151 15.5723 0.168603 14.4655 0.00376767 14.0181C0.00376767 14.0181 -0.0197803 18.9396 0.0508635 19.1987C0.121507 19.4342 0.498274 19.8109 0.498274 19.8109C0.498274 19.8109 12.2251 27.0166 13.2142 27.4875C14.2032 27.9585 15.1686 27.5111 15.1686 27.5111C15.1686 27.5111 26.4245 20.847 27.2723 20.329C28.12 19.8109 28.3555 18.9161 28.3555 18.9161Z" fill="url(#paint2_linear_1330_2540)"/>
<path fill-rule="evenodd" clip-rule="evenodd" d="M28.3555 14.8187C28.3555 12.3698 28.3555 11.1217 28.3555 11.1217C28.3555 11.1217 28.1671 11.734 27.2958 12.1107C27.2958 12.1107 17.3115 17.88 15.7338 18.9867C14.1561 20.0935 12.5784 18.9161 12.5784 18.9161C12.5784 18.9161 1.91115 12.4404 1.08697 11.993C0.686658 11.7811 0.192151 11.3336 0.00376767 10.8862C0.00376767 10.8862 -0.0197803 14.8658 0.0508635 15.1013C0.121507 15.3603 0.498274 15.7371 0.498274 15.7371C0.498274 15.7371 12.2251 22.9428 13.2142 23.4137C14.2032 23.8847 15.1686 23.4373 15.1686 23.4373C15.1686 23.4373 26.4245 16.7732 27.2723 16.2552C28.12 15.7136 28.3555 14.8187 28.3555 14.8187Z" fill="url(#paint3_linear_1330_2540)"/>
<path fill-rule="evenodd" clip-rule="evenodd" d="M8.12782 11.4746C5.04304 13.3349 7.49202 15.831 7.49202 15.831L4.19531 13.853C4.21886 13.853 7.49202 11.8749 8.12782 11.4746Z" fill="#91C95A"/>
<path fill-rule="evenodd" clip-rule="evenodd" d="M20.373 11.4746C23.4578 13.3349 21.0088 15.831 21.0088 15.831L24.3056 13.853C24.282 13.853 21.0088 11.8749 20.373 11.4746Z" fill="#91C95A"/>
</mask>
<g mask="url(#mask0_1330_2540)">
<path fill-rule="evenodd" clip-rule="evenodd" d="M28.3555 12.8877C28.3555 15.3367 28.3555 16.5848 28.3555 16.5848C28.3555 16.5848 28.1671 15.9725 27.2958 15.5958C27.2958 15.5958 17.3115 9.82651 15.7338 8.71976C14.1561 7.61301 12.5784 8.7904 12.5784 8.7904C12.5784 8.7904 1.91115 15.2661 1.08697 15.7135C0.686658 15.9254 0.192151 16.3728 0.00376767 16.8202C0.00376767 16.8202 -0.0197803 12.8406 0.0508635 12.6052C0.121507 12.3461 0.498274 11.9694 0.498274 11.9694C0.498274 11.9694 12.2251 4.76371 13.2142 4.29275C14.2032 3.82179 15.1686 4.2692 15.1686 4.2692C15.1686 4.2692 26.4245 10.9333 27.2723 11.4513C28.12 11.9929 28.3555 12.8877 28.3555 12.8877Z" fill="url(#paint4_linear_1330_2540)"/>
<path fill-rule="evenodd" clip-rule="evenodd" d="M28.3555 8.8847C28.3555 11.3337 28.3555 13.9004 28.3555 13.9004C28.3555 13.9004 28.1671 11.9695 27.2958 11.5927C27.2958 11.5927 17.3115 5.82347 15.7338 4.71672C14.1561 3.60997 12.5784 4.78736 12.5784 4.78736C12.5784 4.78736 1.91115 11.263 1.08697 11.7105C0.192151 12.2285 0.168603 13.3353 0.00376767 13.8062C0.00376767 13.8062 -0.0197803 8.86115 0.0508635 8.62567C0.121507 8.36665 0.498274 7.98988 0.498274 7.98988C0.498274 7.98988 12.2251 0.784214 13.2142 0.313256C14.2032 -0.157703 15.1686 0.289708 15.1686 0.289708C15.1686 0.289708 26.4245 6.95377 27.2723 7.47183C28.1435 7.98988 28.3555 8.8847 28.3555 8.8847Z" fill="url(#paint5_linear_1330_2540)"/>
<path fill-rule="evenodd" clip-rule="evenodd" d="M28.3555 18.9161C28.3555 16.4671 28.3555 13.9004 28.3555 13.9004C28.3555 13.9004 28.1671 15.8313 27.2958 16.2081C27.2958 16.2081 17.3115 21.9773 15.7338 23.0841C14.1561 24.1908 12.5784 23.0134 12.5784 23.0134C12.5784 23.0134 1.91115 16.5378 1.08697 16.0903C0.192151 15.5723 0.168603 14.4655 0.00376767 14.0181C0.00376767 14.0181 -0.0197803 18.9396 0.0508635 19.1987C0.121507 19.4342 0.498274 19.8109 0.498274 19.8109C0.498274 19.8109 12.2251 27.0166 13.2142 27.4875C14.2032 27.9585 15.1686 27.5111 15.1686 27.5111C15.1686 27.5111 26.4245 20.847 27.2723 20.329C28.12 19.8109 28.3555 18.9161 28.3555 18.9161Z" fill="url(#paint6_linear_1330_2540)"/>
<path fill-rule="evenodd" clip-rule="evenodd" d="M28.3555 14.8187C28.3555 12.3698 28.3555 11.1217 28.3555 11.1217C28.3555 11.1217 28.1671 11.734 27.2958 12.1107C27.2958 12.1107 17.3115 17.88 15.7338 18.9867C14.1561 20.0935 12.5784 18.9161 12.5784 18.9161C12.5784 18.9161 1.91115 12.4404 1.08697 11.993C0.686658 11.7811 0.192151 11.3336 0.00376767 10.8862C0.00376767 10.8862 -0.0197803 14.8658 0.0508635 15.1013C0.121507 15.3603 0.498274 15.7371 0.498274 15.7371C0.498274 15.7371 12.2251 22.9428 13.2142 23.4137C14.2032 23.8847 15.1686 23.4373 15.1686 23.4373C15.1686 23.4373 26.4245 16.7732 27.2723 16.2552C28.12 15.7136 28.3555 14.8187 28.3555 14.8187Z" fill="url(#paint7_linear_1330_2540)"/>
<path fill-rule="evenodd" clip-rule="evenodd" d="M8.12782 11.4746C5.04304 13.3349 7.49202 15.831 7.49202 15.831L4.19531 13.853C4.21886 13.853 7.49202 11.8749 8.12782 11.4746Z" fill="#91C95A"/>
<path fill-rule="evenodd" clip-rule="evenodd" d="M20.373 11.4746C23.4578 13.3349 21.0088 15.831 21.0088 15.831L24.3056 13.853C24.282 13.853 21.0088 11.8749 20.373 11.4746Z" fill="#91C95A"/>
<g style="mix-blend-mode:color">
<rect x="-1" y="-1" width="29" height="30" fill="#C4C4C4"/>
</g>
</g>
<defs>
<linearGradient id="paint0_linear_1330_2540" x1="0.00587609" y1="10.4623" x2="28.351" y2="10.4623" gradientUnits="userSpaceOnUse">
<stop stop-color="#A98CDD"/>
<stop offset="1" stop-color="#9753DD"/>
</linearGradient>
<linearGradient id="paint1_linear_1330_2540" x1="0.00585514" y1="6.9926" x2="28.3553" y2="6.9926" gradientUnits="userSpaceOnUse">
<stop offset="0.2263" stop-color="#526DE2"/>
<stop offset="1" stop-color="#5241E2"/>
</linearGradient>
<linearGradient id="paint2_linear_1330_2540" x1="0.00376767" y1="20.8049" x2="28.3505" y2="20.8049" gradientUnits="userSpaceOnUse">
<stop stop-color="#5241E2"/>
<stop offset="0.847" stop-color="#526DE2"/>
</linearGradient>
<linearGradient id="paint3_linear_1330_2540" x1="0.00587609" y1="17.2457" x2="28.351" y2="17.2457" gradientUnits="userSpaceOnUse">
<stop stop-color="#9753DD"/>
<stop offset="1" stop-color="#A98CDD"/>
</linearGradient>
<linearGradient id="paint4_linear_1330_2540" x1="0.00587609" y1="10.4623" x2="28.351" y2="10.4623" gradientUnits="userSpaceOnUse">
<stop stop-color="#A98CDD"/>
<stop offset="1" stop-color="#9753DD"/>
</linearGradient>
<linearGradient id="paint5_linear_1330_2540" x1="0.00585514" y1="6.9926" x2="28.3553" y2="6.9926" gradientUnits="userSpaceOnUse">
<stop offset="0.2263" stop-color="#526DE2"/>
<stop offset="1" stop-color="#5241E2"/>
</linearGradient>
<linearGradient id="paint6_linear_1330_2540" x1="0.00376767" y1="20.8049" x2="28.3505" y2="20.8049" gradientUnits="userSpaceOnUse">
<stop stop-color="#5241E2"/>
<stop offset="0.847" stop-color="#526DE2"/>
</linearGradient>
<linearGradient id="paint7_linear_1330_2540" x1="0.00587609" y1="17.2457" x2="28.351" y2="17.2457" gradientUnits="userSpaceOnUse">
<stop stop-color="#9753DD"/>
<stop offset="1" stop-color="#A98CDD"/>
</linearGradient>
</defs>
</svg>
