<svg width="14" height="15" viewBox="0 0 14 15" fill="none" xmlns="http://www.w3.org/2000/svg">
<path d="M0.602678 12.2545L6.42857 14.8996C6.5625 14.9665 6.69643 15 6.86384 15C7.03125 15 7.16518 14.9665 7.29911 14.8996L13.125 12.2545C13.4933 12.0871 13.7277 11.7188 13.7277 11.317V3.68304C13.7277 3.28125 13.4933 2.91295 13.125 2.74554L7.26562 0.100446C6.99777 -0.0334821 6.69643 -0.0334821 6.42857 0.100446L0.602678 2.74554C0.234375 2.91295 0 3.28125 0 3.68304V11.317C0 11.7188 0.234375 12.0871 0.602678 12.2545ZM2.04241 5.2567L5.82589 6.99777V12.3884L2.04241 10.6808V5.2567ZM7.83482 12.3884V6.99777L11.6183 5.2567V10.6473L7.83482 12.3884ZM6.83036 2.14286L10.2121 3.68304L6.83036 5.22321L3.44866 3.68304L6.83036 2.14286Z" fill="#8A96AF"/>
</svg>
