<svg width="31" height="30" viewBox="0 0 31 30" fill="none" xmlns="http://www.w3.org/2000/svg">
<mask id="mask0_1330_2556" style="mask-type:alpha" maskUnits="userSpaceOnUse" x="0" y="0" width="31" height="30">
<path fill-rule="evenodd" clip-rule="evenodd" d="M15.481 26.6092L15.2926 26.7269L14.6332 27.1744L13.291 28.0692L12.9378 28.3047L12.7494 28.4224L11.5249 29.2466L8.76979 25.1963L6.01469 21.099C5.04922 19.6861 5.00213 17.8258 5.84985 16.3423L7.12144 14.1523L9.54688 17.7552L12.9142 22.7709L13.762 24.0425L14.5155 25.1728L15.269 26.2795L15.481 26.6092Z" fill="url(#paint0_linear_1330_2556)"/>
<path fill-rule="evenodd" clip-rule="evenodd" d="M24.6877 16.2246C25.559 17.7552 25.5119 19.639 24.5229 21.099L21.7678 25.1963L19.0362 29.2701L17.8588 28.493L17.8117 28.4459L17.694 28.3753L17.3643 28.1634L15.9044 27.1979L15.245 26.7505L15.0566 26.6327L15.245 26.3502L15.9986 25.2434L16.8463 23.9954L17.694 22.7473L21.2733 17.402L23.4397 14.1523L24.6877 16.2246Z" fill="url(#paint1_linear_1330_2556)"/>
<path fill-rule="evenodd" clip-rule="evenodd" d="M29.8684 25.1963C31.0929 27.3156 29.5622 29.9765 27.1133 29.9765H20.2608H12.749V25.1963H29.8684Z" fill="url(#paint2_linear_1330_2556)"/>
<path fill-rule="evenodd" clip-rule="evenodd" d="M27.7966 21.6168C28.503 22.8413 28.1498 24.3955 27.0195 25.1961L20.2612 29.9763H17.718L17.0587 29.058L16.8939 28.8225L15.7871 27.2683L15.9284 27.1741L17.6003 25.9967L17.6945 25.9261L17.8122 25.8319L18.3538 25.4551L18.7306 25.1961L24.5234 21.0988L26.6427 19.6152L27.7966 21.6168Z" fill="url(#paint3_linear_1330_2556)"/>
<path fill-rule="evenodd" clip-rule="evenodd" d="M20.6144 9.20759C22.0273 11.633 22.2863 14.5765 21.3208 17.2139L21.2737 17.3552L18.448 25.1966L18.3538 25.4557L17.8828 26.7508L17.8122 26.9156L17.6945 27.2453L17.3648 28.1401L17.1529 28.7288L17.0351 29.0585L16.729 29.9062L15.3161 29.3882L13.6678 28.7995L13.5029 28.7288L12.9142 28.5169L12.7258 28.4463L12.2549 28.2814L12.7258 26.9627L12.7965 26.7508L12.9142 26.4211L13.032 26.0679L13.3381 25.1966L13.7384 24.0663L15.3161 19.71L17.6709 13.1872L19.6725 7.62988L20.6144 9.20759Z" fill="url(#paint4_linear_1330_2556)"/>
<path fill-rule="evenodd" clip-rule="evenodd" d="M13.4788 28.0456L13.832 29.9765H10.3233H3.54154C1.09255 29.9765 -0.438061 27.3156 0.786432 25.1963H11.2888L13.4788 28.0456Z" fill="url(#paint5_linear_1330_2556)"/>
<path fill-rule="evenodd" clip-rule="evenodd" d="M14.751 27.2682L13.6678 28.7988L13.5736 28.9401L12.9142 29.882L12.8436 29.9762H10.3004L3.54215 25.196C2.4354 24.4189 2.10573 22.8883 2.78862 21.7109L3.98956 19.6387L6.06178 21.0986L11.8546 25.196L12.3962 25.5727L12.7494 25.8082L12.9378 25.9495L13.0555 26.0437L14.6332 27.1505L14.751 27.2682Z" fill="url(#paint6_linear_1330_2556)"/>
<path fill-rule="evenodd" clip-rule="evenodd" d="M16.0683 28.281L15.5267 28.4694L15.4796 28.493L15.3619 28.5401L17.1751 28.7284L16.8925 28.8226L15.3383 29.3878L13.9255 29.9058L13.5722 28.9404L13.5016 28.7284L13.2661 28.0691L12.9129 27.1036L12.7952 26.774L12.7245 26.562L12.3713 25.5966L12.23 25.2198L9.54554 17.8022L9.33361 17.2371C8.36814 14.5526 8.62717 11.6091 10.0636 9.13657L10.9584 7.60596L12.9364 13.0691L15.3619 19.7567L16.8925 23.9718L17.3399 25.2198L17.6225 25.9969L17.0102 26.2559L17.128 26.5856L17.1986 26.7504L16.0683 28.281Z" fill="url(#paint7_linear_1330_2556)"/>
<path fill-rule="evenodd" clip-rule="evenodd" d="M17.6943 7.88856V29.9765H12.9141V7.9121C12.9141 5.43957 13.5734 3.03768 14.7979 0.894821L15.316 0L15.834 0.894821C17.0585 3.01413 17.6943 5.43957 17.6943 7.88856Z" fill="url(#paint8_linear_1330_2556)"/>
<path fill-rule="evenodd" clip-rule="evenodd" d="M17.6934 26.3735C17.6934 26.3735 18.9649 29.9999 22.0497 29.9999C25.1345 29.9999 17.6934 29.9999 17.6934 29.9999V26.3735Z" fill="#7E41CE"/>
<path fill-rule="evenodd" clip-rule="evenodd" d="M12.9374 26.3735C12.9374 26.3735 11.6658 29.9999 8.58101 29.9999C5.49623 29.9999 12.9374 29.9999 12.9374 29.9999V26.3735Z" fill="#7E41CE"/>
</mask>
<g mask="url(#mask0_1330_2556)">
<path fill-rule="evenodd" clip-rule="evenodd" d="M15.481 26.6092L15.2926 26.7269L14.6332 27.1744L13.291 28.0692L12.9378 28.3047L12.7494 28.4224L11.5249 29.2466L8.76979 25.1963L6.01469 21.099C5.04922 19.6861 5.00213 17.8258 5.84985 16.3423L7.12144 14.1523L9.54688 17.7552L12.9142 22.7709L13.762 24.0425L14.5155 25.1728L15.269 26.2795L15.481 26.6092Z" fill="url(#paint9_linear_1330_2556)"/>
<path fill-rule="evenodd" clip-rule="evenodd" d="M24.6877 16.2246C25.559 17.7552 25.5119 19.639 24.5229 21.099L21.7678 25.1963L19.0362 29.2701L17.8588 28.493L17.8117 28.4459L17.694 28.3753L17.3643 28.1634L15.9044 27.1979L15.245 26.7505L15.0566 26.6327L15.245 26.3502L15.9986 25.2434L16.8463 23.9954L17.694 22.7473L21.2733 17.402L23.4397 14.1523L24.6877 16.2246Z" fill="url(#paint10_linear_1330_2556)"/>
<path fill-rule="evenodd" clip-rule="evenodd" d="M29.8684 25.1963C31.0929 27.3156 29.5622 29.9765 27.1133 29.9765H20.2608H12.749V25.1963H29.8684Z" fill="url(#paint11_linear_1330_2556)"/>
<path fill-rule="evenodd" clip-rule="evenodd" d="M27.7966 21.6168C28.503 22.8413 28.1498 24.3955 27.0195 25.1961L20.2612 29.9763H17.718L17.0587 29.058L16.8939 28.8225L15.7871 27.2683L15.9284 27.1741L17.6003 25.9967L17.6945 25.9261L17.8122 25.8319L18.3538 25.4551L18.7306 25.1961L24.5234 21.0988L26.6427 19.6152L27.7966 21.6168Z" fill="url(#paint12_linear_1330_2556)"/>
<path fill-rule="evenodd" clip-rule="evenodd" d="M20.6144 9.20759C22.0273 11.633 22.2863 14.5765 21.3208 17.2139L21.2737 17.3552L18.448 25.1966L18.3538 25.4557L17.8828 26.7508L17.8122 26.9156L17.6945 27.2453L17.3648 28.1401L17.1529 28.7288L17.0351 29.0585L16.729 29.9062L15.3161 29.3882L13.6678 28.7995L13.5029 28.7288L12.9142 28.5169L12.7258 28.4463L12.2549 28.2814L12.7258 26.9627L12.7965 26.7508L12.9142 26.4211L13.032 26.0679L13.3381 25.1966L13.7384 24.0663L15.3161 19.71L17.6709 13.1872L19.6725 7.62988L20.6144 9.20759Z" fill="url(#paint13_linear_1330_2556)"/>
<path fill-rule="evenodd" clip-rule="evenodd" d="M13.4788 28.0456L13.832 29.9765H10.3233H3.54154C1.09255 29.9765 -0.438061 27.3156 0.786432 25.1963H11.2888L13.4788 28.0456Z" fill="url(#paint14_linear_1330_2556)"/>
<path fill-rule="evenodd" clip-rule="evenodd" d="M14.751 27.2682L13.6678 28.7988L13.5736 28.9401L12.9142 29.882L12.8436 29.9762H10.3004L3.54215 25.196C2.4354 24.4189 2.10573 22.8883 2.78862 21.7109L3.98956 19.6387L6.06178 21.0986L11.8546 25.196L12.3962 25.5727L12.7494 25.8082L12.9378 25.9495L13.0555 26.0437L14.6332 27.1505L14.751 27.2682Z" fill="url(#paint15_linear_1330_2556)"/>
<path fill-rule="evenodd" clip-rule="evenodd" d="M16.0683 28.281L15.5267 28.4694L15.4796 28.493L15.3619 28.5401L17.1751 28.7284L16.8925 28.8226L15.3383 29.3878L13.9255 29.9058L13.5722 28.9404L13.5016 28.7284L13.2661 28.0691L12.9129 27.1036L12.7952 26.774L12.7245 26.562L12.3713 25.5966L12.23 25.2198L9.54554 17.8022L9.33361 17.2371C8.36814 14.5526 8.62717 11.6091 10.0636 9.13657L10.9584 7.60596L12.9364 13.0691L15.3619 19.7567L16.8925 23.9718L17.3399 25.2198L17.6225 25.9969L17.0102 26.2559L17.128 26.5856L17.1986 26.7504L16.0683 28.281Z" fill="url(#paint16_linear_1330_2556)"/>
<path fill-rule="evenodd" clip-rule="evenodd" d="M17.6943 7.88856V29.9765H12.9141V7.9121C12.9141 5.43957 13.5734 3.03768 14.7979 0.894821L15.316 0L15.834 0.894821C17.0585 3.01413 17.6943 5.43957 17.6943 7.88856Z" fill="url(#paint17_linear_1330_2556)"/>
<path fill-rule="evenodd" clip-rule="evenodd" d="M17.6934 26.3735C17.6934 26.3735 18.9649 29.9999 22.0497 29.9999C25.1345 29.9999 17.6934 29.9999 17.6934 29.9999V26.3735Z" fill="#7E41CE"/>
<path fill-rule="evenodd" clip-rule="evenodd" d="M12.9374 26.3735C12.9374 26.3735 11.6658 29.9999 8.58101 29.9999C5.49623 29.9999 12.9374 29.9999 12.9374 29.9999V26.3735Z" fill="#7E41CE"/>
<g style="mix-blend-mode:color">
<rect width="30" height="30" fill="#C4C4C4"/>
</g>
</g>
<defs>
<linearGradient id="paint0_linear_1330_2556" x1="5.2673" y1="21.7159" x2="15.4693" y2="21.7159" gradientUnits="userSpaceOnUse">
<stop stop-color="#91C95A"/>
<stop offset="0.3994" stop-color="#5571DC"/>
<stop offset="1" stop-color="#526DE2"/>
</linearGradient>
<linearGradient id="paint1_linear_1330_2556" x1="15.0826" y1="21.6853" x2="25.3042" y2="21.6853" gradientUnits="userSpaceOnUse">
<stop stop-color="#526DE2"/>
<stop offset="0.5726" stop-color="#5571DC"/>
<stop offset="1" stop-color="#91C95A"/>
</linearGradient>
<linearGradient id="paint2_linear_1330_2556" x1="12.7255" y1="27.5923" x2="30.2954" y2="27.5923" gradientUnits="userSpaceOnUse">
<stop offset="0.2263" stop-color="#526DE2"/>
<stop offset="1" stop-color="#5241E2"/>
</linearGradient>
<linearGradient id="paint3_linear_1330_2556" x1="15.7895" y1="24.7981" x2="28.1621" y2="24.7981" gradientUnits="userSpaceOnUse">
<stop offset="0.2263" stop-color="#526DE2"/>
<stop offset="1" stop-color="#5241E2"/>
</linearGradient>
<linearGradient id="paint4_linear_1330_2556" x1="12.2502" y1="18.7645" x2="21.9031" y2="18.7645" gradientUnits="userSpaceOnUse">
<stop offset="0.2263" stop-color="#526DE2"/>
<stop offset="1" stop-color="#5241E2"/>
</linearGradient>
<linearGradient id="paint5_linear_1330_2556" x1="0.33125" y1="27.5923" x2="13.8203" y2="27.5923" gradientUnits="userSpaceOnUse">
<stop offset="0.2263" stop-color="#526DE2"/>
<stop offset="1" stop-color="#5241E2"/>
</linearGradient>
<linearGradient id="paint6_linear_1330_2556" x1="2.42056" y1="24.8169" x2="14.7604" y2="24.8169" gradientUnits="userSpaceOnUse">
<stop offset="0.2263" stop-color="#526DE2"/>
<stop offset="1" stop-color="#5241E2"/>
</linearGradient>
<linearGradient id="paint7_linear_1330_2556" x1="8.76629" y1="18.7335" x2="17.6061" y2="18.7335" gradientUnits="userSpaceOnUse">
<stop offset="0.2263" stop-color="#526DE2"/>
<stop offset="1" stop-color="#5241E2"/>
</linearGradient>
<linearGradient id="paint8_linear_1330_2556" x1="15.3125" y1="0" x2="15.3125" y2="29.9836" gradientUnits="userSpaceOnUse">
<stop stop-color="#A98CDD"/>
<stop offset="0.6732" stop-color="#9856DD"/>
<stop offset="1" stop-color="#7E41CE"/>
</linearGradient>
<linearGradient id="paint9_linear_1330_2556" x1="5.2673" y1="21.7159" x2="15.4693" y2="21.7159" gradientUnits="userSpaceOnUse">
<stop stop-color="#91C95A"/>
<stop offset="0.3994" stop-color="#5571DC"/>
<stop offset="1" stop-color="#526DE2"/>
</linearGradient>
<linearGradient id="paint10_linear_1330_2556" x1="15.0826" y1="21.6853" x2="25.3042" y2="21.6853" gradientUnits="userSpaceOnUse">
<stop stop-color="#526DE2"/>
<stop offset="0.5726" stop-color="#5571DC"/>
<stop offset="1" stop-color="#91C95A"/>
</linearGradient>
<linearGradient id="paint11_linear_1330_2556" x1="12.7255" y1="27.5923" x2="30.2954" y2="27.5923" gradientUnits="userSpaceOnUse">
<stop offset="0.2263" stop-color="#526DE2"/>
<stop offset="1" stop-color="#5241E2"/>
</linearGradient>
<linearGradient id="paint12_linear_1330_2556" x1="15.7895" y1="24.7981" x2="28.1621" y2="24.7981" gradientUnits="userSpaceOnUse">
<stop offset="0.2263" stop-color="#526DE2"/>
<stop offset="1" stop-color="#5241E2"/>
</linearGradient>
<linearGradient id="paint13_linear_1330_2556" x1="12.2502" y1="18.7645" x2="21.9031" y2="18.7645" gradientUnits="userSpaceOnUse">
<stop offset="0.2263" stop-color="#526DE2"/>
<stop offset="1" stop-color="#5241E2"/>
</linearGradient>
<linearGradient id="paint14_linear_1330_2556" x1="0.33125" y1="27.5923" x2="13.8203" y2="27.5923" gradientUnits="userSpaceOnUse">
<stop offset="0.2263" stop-color="#526DE2"/>
<stop offset="1" stop-color="#5241E2"/>
</linearGradient>
<linearGradient id="paint15_linear_1330_2556" x1="2.42056" y1="24.8169" x2="14.7604" y2="24.8169" gradientUnits="userSpaceOnUse">
<stop offset="0.2263" stop-color="#526DE2"/>
<stop offset="1" stop-color="#5241E2"/>
</linearGradient>
<linearGradient id="paint16_linear_1330_2556" x1="8.76629" y1="18.7335" x2="17.6061" y2="18.7335" gradientUnits="userSpaceOnUse">
<stop offset="0.2263" stop-color="#526DE2"/>
<stop offset="1" stop-color="#5241E2"/>
</linearGradient>
<linearGradient id="paint17_linear_1330_2556" x1="15.3125" y1="0" x2="15.3125" y2="29.9836" gradientUnits="userSpaceOnUse">
<stop stop-color="#A98CDD"/>
<stop offset="0.6732" stop-color="#9856DD"/>
<stop offset="1" stop-color="#7E41CE"/>
</linearGradient>
</defs>
</svg>
