<svg width="77" height="77" viewBox="0 0 77 77" fill="none" xmlns="http://www.w3.org/2000/svg">
<circle cx="38.5" cy="38.5" r="38.5" fill="white"/>
<path fill-rule="evenodd" clip-rule="evenodd" d="M38.9717 54.5223L38.6674 54.7125L37.6023 55.4352L35.4342 56.8806L34.8636 57.261L34.5593 57.4512L32.5813 58.7825L28.1309 52.24L23.6805 45.6215C22.121 43.3392 22.0449 40.3343 23.4143 37.9379L25.4683 34.4004L29.3862 40.2201L34.8256 48.3222L36.1949 50.3762L37.4121 52.202L38.6293 53.9898L38.9717 54.5223Z" fill="url(#paint0_linear_1469_104)"/>
<path fill-rule="evenodd" clip-rule="evenodd" d="M53.8435 37.7477C55.2509 40.2201 55.1748 43.2632 53.5772 45.6215L49.1269 52.24L44.7145 58.8205L42.8126 57.5653L42.7365 57.4892L42.5463 57.3751L42.0138 57.0328L39.6555 55.4732L38.5904 54.7505L38.2861 54.5603L38.5904 54.1039L39.8076 52.3161L41.177 50.3001L42.5463 48.2841L48.3281 39.6496L51.8275 34.4004L53.8435 37.7477Z" fill="url(#paint1_linear_1469_104)"/>
<path fill-rule="evenodd" clip-rule="evenodd" d="M62.2119 52.2402C64.1899 55.6636 61.7174 59.9619 57.7615 59.9619H46.6926H34.5586V52.2402H62.2119Z" fill="url(#paint2_linear_1469_104)"/>
<path fill-rule="evenodd" clip-rule="evenodd" d="M58.865 46.4588C60.0061 48.4367 59.4356 50.9472 57.6098 52.2405L46.693 59.9621H42.5849L41.5198 58.4787L41.2536 58.0983L39.4658 55.5878L39.694 55.4357L42.3947 53.5338L42.5469 53.4197L42.737 53.2675L43.6119 52.6589L44.2205 52.2405L53.5778 45.622L57.0012 43.2256L58.865 46.4588Z" fill="url(#paint3_linear_1469_104)"/>
<path fill-rule="evenodd" clip-rule="evenodd" d="M47.2621 26.4128C49.5444 30.3307 49.9628 35.0854 48.4033 39.3456L48.3272 39.5738L43.7627 52.2403L43.6105 52.6587L42.8498 54.7508L42.7357 55.0171L42.5455 55.5496L42.0129 56.995L41.6706 57.946L41.4804 58.4785L40.9859 59.8478L38.7037 59.011L36.041 58.0601L35.7748 57.946L34.8238 57.6036L34.5195 57.4895L33.7588 57.2232L34.5195 55.0931L34.6337 54.7508L34.8238 54.2183L35.014 53.6477L35.5085 52.2403L36.1552 50.4145L38.7037 43.3776L42.5074 32.8411L45.7406 23.8643L47.2621 26.4128Z" fill="url(#paint4_linear_1469_104)"/>
<path fill-rule="evenodd" clip-rule="evenodd" d="M35.7375 56.8428L36.308 59.9619H30.6404H19.6856C15.7297 59.9619 13.2573 55.6636 15.2352 52.2402H32.2L35.7375 56.8428Z" fill="url(#paint5_linear_1469_104)"/>
<path fill-rule="evenodd" clip-rule="evenodd" d="M37.7911 55.5879L36.0414 58.0603L35.8892 58.2885L34.8242 59.81L34.7101 59.9622H30.602L19.6852 52.2405C17.8974 50.9853 17.3649 48.5129 18.468 46.611L20.4079 43.2637L23.7552 45.622L33.1125 52.2405L33.9874 52.8491L34.5579 53.2295L34.8622 53.4577L35.0524 53.6099L37.6009 55.3977L37.7911 55.5879Z" fill="url(#paint6_linear_1469_104)"/>
<path fill-rule="evenodd" clip-rule="evenodd" d="M39.9209 57.2232L39.0461 57.5275L38.97 57.5655L38.7798 57.6416L41.7087 57.9459L41.2522 58.0981L38.7418 59.011L36.4595 59.8478L35.8889 58.2882L35.7748 57.9459L35.3945 56.8809L34.8239 55.3213L34.6337 54.7888L34.5196 54.4465L33.949 52.8869L33.7208 52.2783L29.3845 40.2965L29.0422 39.3836C27.4826 35.0473 27.901 30.2926 30.2213 26.2986L31.6668 23.8262L34.8619 32.6509L38.7798 43.4536L41.2522 50.2623L41.975 52.2783L42.4314 53.5336L41.4424 53.952L41.6326 54.4845L41.7467 54.7508L39.9209 57.2232Z" fill="url(#paint7_linear_1469_104)"/>
<path fill-rule="evenodd" clip-rule="evenodd" d="M42.5458 24.2826V59.9619H34.8242V24.3207C34.8242 20.3267 35.8893 16.4469 37.8672 12.9855L38.7041 11.54L39.5409 12.9855C41.5188 16.4089 42.5458 20.3267 42.5458 24.2826Z" fill="url(#paint8_linear_1469_104)"/>
<path fill-rule="evenodd" clip-rule="evenodd" d="M42.5469 54.1421C42.5469 54.1421 44.6009 59.9999 49.5838 59.9999C54.5668 59.9999 42.5469 59.9999 42.5469 59.9999V54.1421Z" fill="#7E41CE"/>
<path fill-rule="evenodd" clip-rule="evenodd" d="M34.863 54.1421C34.863 54.1421 32.809 59.9999 27.8261 59.9999C22.8431 59.9999 34.863 59.9999 34.863 59.9999V54.1421Z" fill="#7E41CE"/>
<defs>
<linearGradient id="paint0_linear_1469_104" x1="22.4733" y1="46.6181" x2="38.9527" y2="46.6181" gradientUnits="userSpaceOnUse">
<stop stop-color="#91C95A"/>
<stop offset="0.3994" stop-color="#5571DC"/>
<stop offset="1" stop-color="#526DE2"/>
</linearGradient>
<linearGradient id="paint1_linear_1469_104" x1="38.3281" y1="46.5686" x2="54.8394" y2="46.5686" gradientUnits="userSpaceOnUse">
<stop stop-color="#526DE2"/>
<stop offset="0.5726" stop-color="#5571DC"/>
<stop offset="1" stop-color="#91C95A"/>
</linearGradient>
<linearGradient id="paint2_linear_1469_104" x1="34.5206" y1="56.1106" x2="62.9017" y2="56.1106" gradientUnits="userSpaceOnUse">
<stop offset="0.2263" stop-color="#526DE2"/>
<stop offset="1" stop-color="#5241E2"/>
</linearGradient>
<linearGradient id="paint3_linear_1469_104" x1="39.4697" y1="51.5977" x2="59.4554" y2="51.5977" gradientUnits="userSpaceOnUse">
<stop offset="0.2263" stop-color="#526DE2"/>
<stop offset="1" stop-color="#5241E2"/>
</linearGradient>
<linearGradient id="paint4_linear_1469_104" x1="33.7513" y1="41.8503" x2="49.3438" y2="41.8503" gradientUnits="userSpaceOnUse">
<stop offset="0.2263" stop-color="#526DE2"/>
<stop offset="1" stop-color="#5241E2"/>
</linearGradient>
<linearGradient id="paint5_linear_1469_104" x1="14.4999" y1="56.1106" x2="36.2891" y2="56.1106" gradientUnits="userSpaceOnUse">
<stop offset="0.2263" stop-color="#526DE2"/>
<stop offset="1" stop-color="#5241E2"/>
</linearGradient>
<linearGradient id="paint6_linear_1469_104" x1="17.8735" y1="51.6281" x2="37.8064" y2="51.6281" gradientUnits="userSpaceOnUse">
<stop offset="0.2263" stop-color="#526DE2"/>
<stop offset="1" stop-color="#5241E2"/>
</linearGradient>
<linearGradient id="paint7_linear_1469_104" x1="28.1258" y1="41.8008" x2="42.4049" y2="41.8008" gradientUnits="userSpaceOnUse">
<stop offset="0.2263" stop-color="#526DE2"/>
<stop offset="1" stop-color="#5241E2"/>
</linearGradient>
<linearGradient id="paint8_linear_1469_104" x1="38.6984" y1="11.54" x2="38.6984" y2="59.9733" gradientUnits="userSpaceOnUse">
<stop stop-color="#A98CDD"/>
<stop offset="0.6732" stop-color="#9856DD"/>
<stop offset="1" stop-color="#7E41CE"/>
</linearGradient>
</defs>
</svg>
