<svg width="16" height="17" viewBox="0 0 16 17" fill="none" xmlns="http://www.w3.org/2000/svg">
<path d="M7.84783 1C5.96457 1 4.42391 2.54066 4.42391 4.42391C4.42391 6.30716 5.96457 7.84783 7.84783 7.84783C9.73109 7.84783 11.2717 6.30716 11.2717 4.42391C11.2717 2.54066 9.73109 1 7.84783 1ZM7.84783 2.30435C9.02617 2.30435 9.96739 3.24558 9.96739 4.42391C9.96739 5.60224 9.02617 6.54348 7.84783 6.54348C6.66948 6.54348 5.72826 5.60224 5.72826 4.42391C5.72826 3.24558 6.66948 2.30435 7.84783 2.30435ZM7.84783 8.17391C4.05504 8.17391 1 11.4111 1 15.3478C1.00002 15.5208 1.06873 15.6867 1.19104 15.809C1.31334 15.9313 1.47921 16 1.65217 16H14.0435C14.2164 16 14.3823 15.9313 14.5046 15.809C14.6269 15.6867 14.6956 15.5208 14.6957 15.3478C14.6957 11.4111 11.6406 8.17391 7.84783 8.17391ZM7.84783 9.47826C10.69 9.47826 13.021 11.7451 13.3302 14.6957H2.36549C2.67463 11.7451 5.00565 9.47826 7.84783 9.47826Z" fill="#8A96AF" stroke="#8A96AF"/>
</svg>
