<svg width="35" height="40" viewBox="0 0 35 40" fill="none" xmlns="http://www.w3.org/2000/svg">
<path d="M8.9103 34.5666L8.91026 34.5665L0.5 29.7111V10.2888L8.91027 5.43274L8.91028 5.43273L17.3198 0.577342L25.7308 5.43273L25.7308 5.43275L34.1411 10.2888V29.7111L25.7308 34.5665L17.3198 39.4226L8.9103 34.5666ZM17.5698 4.23009L16.8198 3.79711V4.37808L10.4307 8.06696L3.79159 11.9002L3.5416 12.0445V12.3332V27.6661V27.9548L3.7916 28.0991L10.4307 31.9323L17.0698 35.7655L17.3198 35.9099L17.5698 35.7655L24.2096 31.9323L24.2096 31.9323L30.8487 28.0991L31.0987 27.9548V27.6661V12.3296V12.0409L30.8487 11.8965L24.2096 8.06332L24.2096 8.06331L17.5698 4.23009Z" fill="#4460F1" stroke="#1F5EC4"/>
<path d="M23.2054 19.0833L23.7053 19.0832V18.5833V12.8289H27.1571V28.3312H23.7053V22.5884V22.0884H23.2053H17.8203V19.0839L23.2054 19.0833Z" fill="#4460F1" stroke="#1F5EC4"/>
<path d="M11.8976 16.3726V15.8726H11.3976H6.75293V12.8289H20.4949V15.8726H15.8495H15.3495V16.3726V28.3319H11.8976V16.3726Z" fill="#4460F1" stroke="#1F5EC4"/>
</svg>
